<?xml version="1.0" encoding="UTF-8" standalone="no"?>
<!-- Generator: Adobe Illustrator 28.0.0, SVG Export Plug-In . SVG Version: 6.00 Build 0)  -->

<svg
   version="1.1"
   id="Layer_1"
   x="0px"
   y="0px"
   viewBox="0 0 190 253"
   xml:space="preserve"
   sodipodi:docname="Al Ahly.svg"
   width="190"
   height="253"
   inkscape:version="1.3.2 (091e20ef0f, 2023-11-25)"
   xmlns:inkscape="http://www.inkscape.org/namespaces/inkscape"
   xmlns:sodipodi="http://sodipodi.sourceforge.net/DTD/sodipodi-0.dtd"
   xmlns:xlink="http://www.w3.org/1999/xlink"
   xmlns="http://www.w3.org/2000/svg"
   xmlns:svg="http://www.w3.org/2000/svg"><defs
   id="defs152" /><sodipodi:namedview
   id="namedview152"
   pagecolor="#ffffff"
   bordercolor="#000000"
   borderopacity="0.25"
   inkscape:showpageshadow="2"
   inkscape:pageopacity="0.0"
   inkscape:pagecheckerboard="0"
   inkscape:deskcolor="#d1d1d1"
   inkscape:zoom="3.208"
   inkscape:cx="135.5985"
   inkscape:cy="187.96758"
   inkscape:window-width="1920"
   inkscape:window-height="1011"
   inkscape:window-x="0"
   inkscape:window-y="0"
   inkscape:window-maximized="1"
   inkscape:current-layer="Layer_1" />
<style
   type="text/css"
   id="style1">
	.st0{fill-rule:evenodd;clip-rule:evenodd;fill:#272525;}
	.st1{fill-rule:evenodd;clip-rule:evenodd;fill:url(#SVGID_00000019636356580405589800000003574393066962969731_);}
	.st2{fill:#D5001A;}
	.st3{fill:none;}
	.st4{fill:#FFFFFF;}
	.st5{opacity:0.63;fill:#B4221A;}
	.st6{fill:url(#SVGID_00000069386881822206223900000008053482296549260723_);}
	.st7{fill:#272525;}
	.st8{fill:url(#SVGID_00000136379883693599697700000008749212822388548765_);}
	.st9{fill:url(#SVGID_00000080899272344107200990000003481214155047472565_);}
	.st10{fill:url(#SVGID_00000154399639373751426560000015908755285502001078_);}
	.st11{fill:url(#SVGID_00000010277760646232104180000016002955497857531013_);}
	.st12{fill:url(#SVGID_00000026123990781052669820000013917304261740128959_);}
</style>
<g
   id="g152"
   transform="matrix(0.45959971,0,0,0.45959971,-135.58968,-104.67061)">
	<g
   id="g2">
		<g
   id="g1">
			<defs
   id="defs1">
				<path
   id="SVGID_1_"
   d="m 353.1,426 v -97.4 c 96.7,-20 196.5,-20 293.2,0 v 0 97.4 c 0,8.5 -0.6,62.2 -0.6,62.2 0,95.6 -26,157.5 -146.2,204.3 C 379.4,645.6 354,583.7 354,488.2 Z" />
			</defs>
			<clipPath
   id="SVGID_00000091725120762653978660000013435390279600454844_">
				<use
   xlink:href="#SVGID_1_"
   style="overflow:visible"
   id="use1" />
			</clipPath>
		</g>
	</g>
	<path
   class="st0"
   d="m 338,487.3 c 0,105.7 28.2,174.1 161.5,226 C 632.9,661.5 661,593 661,487.3 l 1.3,-68.8 v -107.6 0 c -107.4,-22.2 -218.1,-22.2 -325.5,0 v 107.7 c 0.2,0 0.9,30.9 1.2,68.7 z"
   id="path2" />
	
		<linearGradient
   id="SVGID_00000096780696788255229000000018307738596750243202_"
   gradientUnits="userSpaceOnUse"
   x1="499.68289"
   y1="223.68021"
   x2="499.68289"
   y2="692.06659">
		<stop
   offset="0.1423"
   style="stop-color:#805500"
   id="stop2" />
		<stop
   offset="0.2201"
   style="stop-color:#A87F28"
   id="stop3" />
		<stop
   offset="0.2969"
   style="stop-color:#C9A149"
   id="stop4" />
		<stop
   offset="0.36"
   style="stop-color:#DEB65D"
   id="stop5" />
		<stop
   offset="0.4016"
   style="stop-color:#E5BE64"
   id="stop6" />
		<stop
   offset="0.454"
   style="stop-color:#E4BB60"
   id="stop7" />
		<stop
   offset="0.6819"
   style="stop-color:#DFB254"
   id="stop8" />
		<stop
   offset="0.7426"
   style="stop-color:#A27820"
   id="stop9" />
		<stop
   offset="0.7746"
   style="stop-color:#875E08"
   id="stop10" />
		<stop
   offset="0.7933"
   style="stop-color:#8C630D"
   id="stop11" />
		<stop
   offset="0.8163"
   style="stop-color:#9B721A"
   id="stop12" />
		<stop
   offset="0.8416"
   style="stop-color:#B4892F"
   id="stop13" />
		<stop
   offset="0.8684"
   style="stop-color:#D7AB4D"
   id="stop14" />
		<stop
   offset="0.8736"
   style="stop-color:#DFB254"
   id="stop15" />
		<stop
   offset="1"
   style="stop-color:#DFB254"
   id="stop16" />
	</linearGradient>
	<path
   style="clip-rule:evenodd;fill:url(#SVGID_00000096780696788255229000000018307738596750243202_);fill-rule:evenodd"
   d="m 346.6,488.2 c 0,100.1 26.7,164.8 152.9,213.9 C 625.8,653 652.4,588.3 652.4,488.2 l 1.3,-65.1 v -102 0 c -101.6,-21 -206.4,-21 -308.1,0 v 102 z"
   id="path16" />
	<path
   class="st2"
   d="m 646.3,328.6 c -96.7,-20 -196.5,-20 -293.2,0 V 426 l 0.9,62.2 c 0,95.6 25.4,157.5 145.5,204.3 C 619.6,645.6 645,583.7 645,488.2 v -36.8 c 0.8,-8.4 1.2,-16.8 1.2,-25.4 z"
   id="path17" />
	<g
   id="g25">
		<path
   class="st3"
   d="M 611.8,322.3 C 544,349.4 456.1,379 353.1,401 v 15.2 c 116.5,-25.1 213.6,-59.7 283.8,-89.5 -8.4,-1.6 -16.7,-3.1 -25.1,-4.4 z"
   id="path18" />
		<path
   class="st3"
   d="m 353.1,328.6 v 63.5 c 95,-20.2 177.2,-46.9 242.7,-72.1 -80.7,-10.8 -162.7,-8 -242.7,8.6 z"
   id="path19" />
		<path
   class="st3"
   d="m 646.3,374.2 c -69.6,30.6 -170,68 -292.5,95 l 0.3,19 c 0,8.1 0.2,15.9 0.6,23.5 L 646.3,423 Z"
   id="path20" />
		<path
   class="st3"
   d="m 645.1,511.1 -271.8,82.5 c 8.4,17.2 20.1,32.8 36,47.2 l 225.4,-68.5 c 6.2,-18.6 9.3,-38.9 10.4,-61.2 z"
   id="path21" />
		<path
   class="st4"
   d="m 645.7,488.2 c 0,0 0.6,-53.6 0.6,-62.2 v -3 l -291.7,88.6 c 1.6,30.9 6.9,57.9 18.7,82 l 271.8,-82.5 c 0.4,-7.4 0.6,-15.1 0.6,-22.9 z"
   id="path22" />
		<path
   class="st5"
   d="m 634.8,572.3 -225.4,68.5 c 21.5,19.3 50.7,36.3 90.2,51.7 80.5,-31.4 118.7,-69.6 135.2,-120.2 z"
   id="path23" />
		<path
   class="st5"
   d="m 646.3,328.6 v 0 c -3.1,-0.6 -6.2,-1.3 -9.4,-1.9 -70.2,29.7 -167.3,64.4 -283.8,89.5 v 9.8 l 0.6,43.2 c 122.5,-27.1 222.9,-64.5 292.5,-95 v -45.6 z"
   id="path24" />
		<path
   class="st5"
   d="m 595.8,320 c -65.5,25.3 -147.7,51.9 -242.7,72.1 v 8.8 c 103,-22 190.9,-51.5 258.7,-78.7 -5.4,-0.7 -10.7,-1.5 -16,-2.2 z"
   id="path25" />
	</g>
	<g
   id="g36">
		<g
   id="g26">
			<path
   class="st4"
   d="m 534.2,335.7 c -0.4,-2.2 -1.4,-2 -2.4,-1.7 -2.4,0.6 -3,-0.1 -3,-0.4 0.3,-1.9 2.5,-2.5 3,-2.4 0.7,0.1 1.1,-0.3 1.1,-0.3 0,0 0.1,0.1 0.4,-1.2 0.3,-1.2 -0.2,-1.4 -0.6,-1.4 -0.4,0 -0.8,0 -2.5,1 -2,1.2 -3.3,4 -3,6.1 0.3,2.1 3,1.7 4.6,1.3 1.6,-0.3 0.5,1.7 0,2.3 -1.1,1.4 -4.8,3.6 -5.5,4 -0.7,0.4 -1.3,0.8 -1.3,0.8 2,-0.3 3.3,-1.1 4.8,-1.7 1.9,-0.8 4.8,-4.2 4.4,-6.4 z m 9.5,32.7 c -0.5,3.9 -2.7,6.4 -2.7,6.4 0,0 -0.4,0.3 -2.1,-4.6 -1.7,-4.8 -0.2,-9.2 0,-12.3 0.2,-2.5 0.8,-1.1 1.7,0.8 0.7,1.5 1.7,3.4 2.1,4.2 0.7,1.5 1.5,1.6 1,5.5 z m -17.6,7.9 c -2.8,-4 -3,-7.3 -3.3,-9.1 -0.3,-1.8 1.2,-6.5 1.7,-8.7 0.5,-2.2 1,-0.2 1,-0.2 0,0 3.1,6.4 3.5,8.8 0.8,4.7 -2.9,9.2 -2.9,9.2 z m -15.9,-27.6 c 2.6,-0.2 2.9,1.5 2.8,1.8 -0.1,0.3 -0.3,1.9 -2.3,1.7 -3.2,-0.4 -2.8,-3.4 -0.5,-3.5 z m 48.6,-2.2 c -2.2,-5.8 -8.7,-14.3 -9.9,-15.8 -1.3,-1.5 -1.7,0 -1.7,0.8 0,0.8 0.1,3.9 0.2,5.5 0.1,1.5 1.9,14.9 2.2,17.6 0.3,2.7 1.1,5.2 2.4,5.1 1.3,-0.2 -0.1,-6 -0.7,-8.3 -0.6,-2.2 -1.4,-11 -1.4,-11 0,0 0.7,0.6 2.1,2.5 3.2,4.4 6.2,11.9 7.6,17.7 1.4,5.9 -1.2,15.9 -6.3,19.3 -5.2,3.4 -9.2,-1.7 -9.2,-1.7 0.1,-0.5 1.1,-2.1 2.1,-10.1 1,-8 -5.2,-17.5 -5.9,-19.2 -0.7,-1.8 -1.3,-1.2 -1.5,-0.7 -0.2,0.5 -0.4,2.3 -2.1,12 -2.4,13.6 1.8,18.1 1.8,18.1 -5,5.8 -9.2,1.2 -9.3,1.1 0,0 0.2,-0.6 1.7,-7.5 1.7,-8 -2.1,-14.7 -3.1,-17.6 -1,-2.9 -1.7,-5.2 -2.3,-5.2 -1.1,0.1 -1,3 -1.7,5.8 -0.7,2.8 -2,6.2 -3,12.9 -1,6.7 2.6,11.9 2.6,11.9 -1.7,2.4 -6.7,4.8 -9.5,4.5 -13.8,-1.7 -10.5,-16.2 -10.5,-16.2 3.2,-1.8 8.8,-8.9 8.8,-8.9 5.7,-0.6 13.5,-10.3 8.2,-22.2 -5.3,-11.9 -14.7,-11.6 -17.4,-10.3 -9.1,4.3 -3.1,19.4 -1.9,21.2 1.1,1.8 0.9,-1.4 0.6,-2.4 -1.8,-5.7 -1.2,-9.6 -0.1,-10.6 5.5,-5.2 14.2,2.1 15.2,3.3 1,1.2 3.2,4.4 2.3,7.2 -0.9,2.8 -3.6,4.7 -3.6,4.7 0,-5.6 -2.8,-7.9 -5.1,-7.5 -2.3,0.4 -3.7,3.5 -3.8,8.4 -0.1,4.9 1.5,6.2 1.5,6.2 -7.5,8.1 -15.6,10.2 -23.6,8.8 -14.8,-2.5 -14.3,-21.9 -14.3,-21.9 -0.5,-9.4 -1.4,-14.6 -1.9,-15.9 -0.5,-1.3 -1.1,-1.3 -1.4,-0.8 -0.4,0.5 -1.5,2.9 -2,4.2 -0.4,1.3 -0.3,1.8 -0.3,1.8 1.1,2.3 1.1,6.1 1.8,9.1 0.6,2.9 -0.5,5.7 -1.5,7.4 -1,1.8 -5.1,6.1 -6.1,7.6 -1,1.5 -2.1,3.1 -2.6,8.1 -0.5,5.1 3,6.3 6.1,6.9 3.2,0.7 3.4,2.3 3.8,3.8 0.4,1.5 -4.1,8.5 -12.7,8.1 -9.2,-0.5 -11.5,-6.1 -12.5,-9.4 -2.7,-9.2 2.1,-16.9 2.9,-18.4 0.9,-1.5 6.7,-13.7 7.2,-14.8 0.4,-1.1 1.2,-3.3 1.2,-3.8 0,-0.5 0.7,-5.7 0.7,-6.4 0.1,-0.7 -0.2,-0.9 -0.4,-0.3 -0.3,0.5 -1.4,4.6 -1.8,7.3 -0.5,2.7 -4.4,10.1 -5.6,12.3 -2.3,4.1 -7.9,15.7 -7.8,21.5 0.2,17.7 12.8,19.1 17,19 9.9,-0.1 14.5,-10.6 14.9,-16.7 0.5,-6.1 -1.6,-8.2 -6.1,-9.2 -4.5,-1 -4.2,-3 -4.2,-3 0.6,-0.7 3.8,-4.8 4.4,-5.7 0.6,-0.9 3,-5.2 3.4,-5.9 0.4,-0.7 0.6,-0.7 0.6,-0.7 1.2,20.5 15.8,23.9 23.5,23.1 6.5,-0.6 11.3,-3.9 11.3,-3.9 -1.9,9.9 4.2,16.3 7.7,18.4 11.3,6.6 17.2,-3.8 17.2,-3.8 10.1,9.6 14.7,-1.1 14.7,-1.1 3.8,3.9 7.8,5.2 9.7,5 7.1,-0.7 9.8,-12.8 10.2,-16.2 1.7,-13 -1.3,-21 -2.8,-25.1 z"
   id="path26" />
		</g>
		<g
   id="g35">
			<g
   id="g34">
				<path
   class="st4"
   d="m 458.3,401 h 3.1 l 2.6,13.7 h -2.6 l -0.5,-3 h -2.2 l -0.5,3 h -2.6 z m 2.4,9 -0.8,-5.5 -0.9,5.5 z"
   id="path27" />
				<path
   class="st4"
   d="m 467,401 h 2.8 v 11.8 h 3.2 v 1.9 h -6 z"
   id="path28" />
				<path
   class="st4"
   d="m 483.6,401 h 3.1 l 2.6,13.7 h -2.6 l -0.5,-3 H 484 l -0.5,3 h -2.6 z m 2.4,9 -0.8,-5.5 -0.8,5.5 z"
   id="path29" />
				<path
   class="st4"
   d="m 492.3,401 h 2.8 v 5.6 h 2.4 V 401 h 2.8 v 13.7 h -2.8 v -6.1 h -2.4 v 6.1 h -2.8 z"
   id="path30" />
				<path
   class="st4"
   d="m 503.9,401 h 2.8 v 11.8 h 3.2 v 1.9 h -6 z"
   id="path31" />
				<path
   class="st4"
   d="m 513.5,409.3 -2.7,-8.3 h 2.6 l 1.5,4.8 1.4,-4.8 h 2.6 l -2.6,8.3 v 5.4 h -2.7 v -5.4 z"
   id="path32" />
				<path
   class="st4"
   d="m 527.3,401 h 5.8 v 1.9 h -3 v 3.7 h 2.6 v 1.9 h -2.6 v 6.2 h -2.8 z"
   id="path33" />
				<path
   class="st4"
   d="m 536.8,413.8 c -0.6,-0.8 -0.9,-1.9 -0.9,-3.4 v -4.9 c 0,-1.5 0.3,-2.7 0.9,-3.4 0.6,-0.8 1.6,-1.2 3.1,-1.2 1.4,0 2.4,0.3 3,1 0.6,0.7 0.9,1.7 0.9,2.9 V 406 H 541 v -1.3 c 0,-0.4 0,-0.7 -0.1,-1 0,-0.2 -0.1,-0.5 -0.3,-0.6 -0.2,-0.2 -0.4,-0.2 -0.8,-0.2 -0.5,0 -0.8,0.2 -1,0.5 -0.1,0.3 -0.2,0.8 -0.2,1.4 v 6.2 c 0,0.6 0.1,1.1 0.3,1.4 0.2,0.3 0.5,0.5 0.9,0.5 0.5,0 0.8,-0.2 0.9,-0.5 0.1,-0.3 0.2,-0.8 0.2,-1.4 v -1.3 h 2.7 v 1.1 c 0,1.3 -0.3,2.3 -0.9,3 -0.6,0.7 -1.6,1.1 -3,1.1 -1.3,0 -2.3,-0.4 -2.9,-1.1 z"
   id="path34" />
			</g>
		</g>
	</g>
	<g
   id="g52">
		<g
   id="g51">
			<path
   class="st4"
   d="m 418.7,631 c -0.6,-0.7 -0.8,-1.8 -0.8,-3.1 v -4.5 c 0,-1.4 0.3,-2.4 0.8,-3.1 0.6,-0.7 1.5,-1.1 2.8,-1.1 1.3,0 2.2,0.3 2.7,0.9 0.5,0.6 0.8,1.5 0.8,2.7 v 1.1 h -2.5 v -1.2 c 0,-0.4 0,-0.7 -0.1,-0.9 0,-0.2 -0.1,-0.4 -0.3,-0.6 -0.2,-0.1 -0.4,-0.2 -0.7,-0.2 -0.5,0 -0.8,0.2 -0.9,0.5 -0.1,0.3 -0.2,0.7 -0.2,1.3 v 5.7 c 0,0.6 0.1,1 0.2,1.3 0.2,0.3 0.4,0.4 0.9,0.4 0.4,0 0.7,-0.1 0.8,-0.4 0.1,-0.3 0.2,-0.7 0.2,-1.3 v -1.2 h 2.5 v 1 c 0,1.2 -0.3,2.1 -0.8,2.8 -0.5,0.7 -1.4,1 -2.7,1 -1.2,0 -2.1,-0.4 -2.7,-1.1 z"
   id="path36" />
			<path
   class="st4"
   d="m 428,619.3 h 2.5 v 10.8 h 3 v 1.7 H 428 Z"
   id="path37" />
			<path
   class="st4"
   d="m 437.3,631.6 c -0.5,-0.3 -0.9,-0.8 -1.1,-1.4 -0.2,-0.6 -0.3,-1.4 -0.3,-2.3 v -8.6 h 2.5 v 9 c 0,0.6 0.1,1.1 0.2,1.4 0.1,0.3 0.4,0.5 0.9,0.5 0.5,0 0.8,-0.2 0.9,-0.5 0.1,-0.3 0.2,-0.8 0.2,-1.4 v -9 h 2.5 v 8.6 c 0,0.9 -0.1,1.7 -0.3,2.3 -0.2,0.6 -0.6,1.1 -1.1,1.4 -0.5,0.3 -1.3,0.5 -2.2,0.5 -0.9,0 -1.6,-0.2 -2.2,-0.5 z"
   id="path38" />
			<path
   class="st4"
   d="m 446.3,619.3 h 3.2 c 1.2,0 2.2,0.2 2.8,0.7 0.7,0.5 1,1.3 1,2.6 0,0.7 -0.2,1.3 -0.5,1.8 -0.3,0.4 -0.8,0.7 -1.4,0.8 0.7,0.1 1.3,0.4 1.7,0.9 0.4,0.5 0.6,1.2 0.6,2.1 0,2.5 -1.2,3.7 -3.7,3.7 h -3.8 v -12.6 z m 3.2,5.1 c 0.6,0 1,-0.1 1.3,-0.4 0.2,-0.3 0.3,-0.7 0.3,-1.3 0,-0.6 -0.1,-1 -0.4,-1.2 -0.3,-0.2 -0.7,-0.4 -1.4,-0.4 h -0.5 v 3.3 z m 0.1,5.7 c 0.6,0 1.1,-0.2 1.3,-0.5 0.3,-0.3 0.4,-0.8 0.4,-1.5 0,-0.7 -0.1,-1.2 -0.4,-1.6 -0.3,-0.3 -0.7,-0.5 -1.3,-0.5 h -0.7 v 4 h 0.7 z"
   id="path39" />
			<path
   class="st4"
   d="m 462.6,631 c -0.6,-0.7 -0.9,-1.7 -0.9,-3.1 v -4.7 c 0,-1.4 0.3,-2.4 0.9,-3.1 0.6,-0.7 1.5,-1 2.9,-1 1.3,0 2.3,0.3 2.8,1 0.6,0.7 0.9,1.7 0.9,3.1 v 4.7 c 0,1.3 -0.3,2.4 -0.9,3.1 -0.6,0.7 -1.5,1 -2.8,1 -1.4,0.1 -2.3,-0.3 -2.9,-1 z m 3.8,-1.2 c 0.1,-0.3 0.2,-0.7 0.2,-1.2 v -5.9 c 0,-0.5 -0.1,-0.9 -0.2,-1.2 -0.2,-0.3 -0.4,-0.4 -0.9,-0.4 -0.4,0 -0.7,0.1 -0.9,0.4 -0.2,0.3 -0.2,0.7 -0.2,1.2 v 5.9 c 0,0.5 0.1,0.9 0.2,1.2 0.1,0.3 0.4,0.4 0.9,0.4 0.4,0.1 0.7,-0.1 0.9,-0.4 z"
   id="path40" />
			<path
   class="st4"
   d="m 472.3,619.3 h 5.3 v 1.8 h -2.8 v 3.4 h 2.3 v 1.8 h -2.3 v 5.7 h -2.5 z"
   id="path41" />
			<path
   class="st4"
   d="m 486.8,621.2 h -1.9 v -1.9 h 6.4 v 1.9 h -1.9 v 10.7 h -2.6 z"
   id="path42" />
			<path
   class="st4"
   d="m 493.8,619.3 h 2.6 v 5.2 h 2.2 v -5.2 h 2.6 v 12.6 h -2.6 v -5.6 h -2.2 v 5.6 h -2.6 z"
   id="path43" />
			<path
   class="st4"
   d="m 504.5,619.3 h 5.5 v 1.8 h -3 v 3.3 h 2.3 v 1.8 H 507 v 3.9 h 3 v 1.7 h -5.5 z"
   id="path44" />
			<path
   class="st4"
   d="m 518.6,631 c -0.6,-0.7 -0.8,-1.8 -0.8,-3.1 v -4.5 c 0,-1.4 0.3,-2.4 0.8,-3.1 0.6,-0.7 1.5,-1.1 2.8,-1.1 1.3,0 2.2,0.3 2.7,0.9 0.5,0.6 0.8,1.5 0.8,2.7 v 1.1 h -2.5 v -1.2 c 0,-0.4 0,-0.7 -0.1,-0.9 0,-0.2 -0.1,-0.4 -0.3,-0.6 -0.2,-0.1 -0.4,-0.2 -0.7,-0.2 -0.5,0 -0.8,0.2 -0.9,0.5 -0.1,0.3 -0.2,0.7 -0.2,1.3 v 5.7 c 0,0.6 0.1,1 0.2,1.3 0.2,0.3 0.4,0.4 0.9,0.4 0.4,0 0.7,-0.1 0.8,-0.4 0.1,-0.3 0.2,-0.7 0.2,-1.3 v -1.2 h 2.5 v 1 c 0,1.2 -0.3,2.1 -0.8,2.8 -0.5,0.7 -1.4,1 -2.7,1 -1.2,0 -2.1,-0.4 -2.7,-1.1 z"
   id="path45" />
			<path
   class="st4"
   d="m 528,619.3 h 5.5 v 1.8 h -2.9 v 3.3 h 2.3 v 1.8 h -2.3 v 3.9 h 3 v 1.7 H 528 Z"
   id="path46" />
			<path
   class="st4"
   d="m 536.2,619.3 h 1.8 l 2.8,6.5 v -6.5 h 2.1 v 12.6 h -1.7 l -2.8,-7 v 7 h -2.2 z"
   id="path47" />
			<path
   class="st4"
   d="m 547.4,621.2 h -1.9 v -1.9 h 6.4 v 1.9 H 550 v 10.7 h -2.6 z"
   id="path48" />
			<path
   class="st4"
   d="m 555.7,631.6 c -0.5,-0.3 -0.9,-0.8 -1.1,-1.4 -0.2,-0.6 -0.3,-1.4 -0.3,-2.3 v -8.6 h 2.5 v 9 c 0,0.6 0.1,1.1 0.2,1.4 0.1,0.3 0.4,0.5 0.9,0.5 0.5,0 0.8,-0.2 0.9,-0.5 0.1,-0.3 0.2,-0.8 0.2,-1.4 v -9 h 2.5 v 8.6 c 0,0.9 -0.1,1.7 -0.3,2.3 -0.2,0.6 -0.6,1.1 -1.1,1.4 -0.5,0.3 -1.3,0.5 -2.2,0.5 -0.9,0 -1.7,-0.2 -2.2,-0.5 z"
   id="path49" />
			<path
   class="st4"
   d="m 564.7,619.3 h 3.3 c 1.4,0 2.4,0.2 3.1,0.7 0.7,0.5 1,1.4 1,2.6 0,0.8 -0.1,1.5 -0.3,2 -0.2,0.5 -0.6,0.9 -1.2,1.1 l 1.7,6.1 h -2.6 l -1.4,-5.7 h -0.9 v 5.7 h -2.5 v -12.5 z m 3.4,5.4 c 0.6,0 1,-0.1 1.3,-0.4 0.2,-0.3 0.4,-0.8 0.4,-1.4 0,-0.6 -0.1,-1.1 -0.3,-1.4 -0.2,-0.3 -0.6,-0.4 -1.2,-0.4 h -0.9 v 3.6 z"
   id="path50" />
			<path
   class="st4"
   d="m 576.6,626.9 -2.5,-7.6 h 2.4 l 1.4,4.4 1.2,-4.4 h 2.3 l -2.4,7.6 v 5 h -2.5 v -5 z"
   id="path51" />
		</g>
	</g>
	<g
   id="g56">
		<g
   id="g55">
			<path
   class="st4"
   d="m 474.5,645 c -0.2,0.1 -0.4,0.2 -0.8,0.3 -0.4,0.1 -0.7,0.2 -0.9,0.3 -0.8,0.3 -1.3,0.4 -1.5,0.5 V 643 c 0.6,-0.3 1.4,-0.6 2.2,-1.1 0.9,-0.5 1.5,-0.9 1.9,-1.3 h 3.3 v 21.9 h -4.2 z"
   id="path52" />
			<path
   class="st4"
   d="m 486.4,661.5 c -0.9,-0.9 -1.3,-2.3 -1.3,-4.2 V 657 h 3.9 c 0,1 0.1,1.7 0.3,2.1 0.2,0.4 0.6,0.6 1.3,0.6 0.5,0 0.8,-0.1 1,-0.4 0.2,-0.3 0.4,-0.7 0.5,-1.3 0.1,-0.6 0.1,-1.5 0.1,-2.7 v -2.2 c -0.2,0.4 -0.6,0.7 -1.1,0.9 -0.5,0.2 -1.1,0.3 -1.8,0.3 -1.6,0 -2.8,-0.6 -3.5,-1.8 -0.7,-1.2 -1.1,-2.8 -1.1,-4.7 0,-4.9 2,-7.4 5.9,-7.4 2,0 3.5,0.6 4.4,1.9 1,1.2 1.4,3 1.4,5.1 v 8 c 0,2.4 -0.4,4.2 -1.3,5.5 -0.9,1.3 -2.4,2 -4.6,2 -1.9,0 -3.3,-0.5 -4.1,-1.4 z m 5.9,-11.4 v -3.5 c 0,-1 -0.1,-1.7 -0.4,-2.3 -0.2,-0.6 -0.7,-0.8 -1.3,-0.8 -0.6,0 -1.1,0.3 -1.3,0.9 -0.2,0.6 -0.3,1.6 -0.3,2.9 0,0.9 0,1.7 0.1,2.1 0.1,0.5 0.2,0.9 0.4,1.2 0.2,0.3 0.6,0.5 1.1,0.5 0.7,0 1.3,-0.3 1.7,-1 z"
   id="path53" />
			<path
   class="st4"
   d="m 503.4,661.3 c -1,-1.1 -1.5,-2.7 -1.5,-4.6 v -9.8 c 0,-2 0.5,-3.6 1.5,-4.7 1,-1.1 2.4,-1.7 4.4,-1.7 1.9,0 3.4,0.6 4.4,1.7 1,1.1 1.5,2.7 1.5,4.7 v 9.8 c 0,1.9 -0.5,3.4 -1.5,4.6 -1,1.2 -2.5,1.7 -4.3,1.7 -2,0 -3.5,-0.6 -4.5,-1.7 z m 6,-4.7 v -9.7 c 0,-0.8 -0.1,-1.5 -0.3,-2 -0.2,-0.5 -0.6,-0.8 -1.3,-0.8 -0.7,0 -1.1,0.3 -1.3,0.8 -0.2,0.5 -0.3,1.2 -0.3,2 v 9.7 c 0,1.8 0.5,2.7 1.6,2.7 1.1,0 1.6,-0.9 1.6,-2.7 z"
   id="path54" />
			<path
   class="st4"
   d="m 524,643.9 h -6 v -3.2 h 10 v 2.7 l -4.6,19.2 h -4.1 z"
   id="path55" />
		</g>
	</g>
	<g
   id="g76">
		
			<linearGradient
   id="SVGID_00000006686363228807616580000015817884527271351455_"
   gradientUnits="userSpaceOnUse"
   x1="333.3403"
   y1="506.5896"
   x2="770.55072"
   y2="500.388">
			<stop
   offset="0.1423"
   style="stop-color:#805500"
   id="stop56" />
			<stop
   offset="0.2201"
   style="stop-color:#A87F28"
   id="stop57" />
			<stop
   offset="0.2969"
   style="stop-color:#C9A149"
   id="stop58" />
			<stop
   offset="0.36"
   style="stop-color:#DEB65D"
   id="stop59" />
			<stop
   offset="0.4016"
   style="stop-color:#E5BE64"
   id="stop60" />
			<stop
   offset="0.482"
   style="stop-color:#F6D67A"
   id="stop61" />
			<stop
   offset="0.5414"
   style="stop-color:#FFE286"
   id="stop62" />
			<stop
   offset="0.6081"
   style="stop-color:#FEE084"
   id="stop63" />
			<stop
   offset="0.6362"
   style="stop-color:#F9D97D"
   id="stop64" />
			<stop
   offset="0.657"
   style="stop-color:#F1CD70"
   id="stop65" />
			<stop
   offset="0.6741"
   style="stop-color:#E6BC5F"
   id="stop66" />
			<stop
   offset="0.6819"
   style="stop-color:#DFB254"
   id="stop67" />
			<stop
   offset="0.7426"
   style="stop-color:#A27820"
   id="stop68" />
			<stop
   offset="0.7746"
   style="stop-color:#875E08"
   id="stop69" />
			<stop
   offset="0.7933"
   style="stop-color:#8C630D"
   id="stop70" />
			<stop
   offset="0.8163"
   style="stop-color:#9B721A"
   id="stop71" />
			<stop
   offset="0.8416"
   style="stop-color:#B4892F"
   id="stop72" />
			<stop
   offset="0.8684"
   style="stop-color:#D7AB4D"
   id="stop73" />
			<stop
   offset="0.8736"
   style="stop-color:#DFB254"
   id="stop74" />
			<stop
   offset="1"
   style="stop-color:#DFB254"
   id="stop75" />
		</linearGradient>
		<path
   style="fill:url(#SVGID_00000006686363228807616580000015817884527271351455_)"
   d="m 437.7,531.1 c 4.5,4.5 15.2,8.3 19.1,9.4 1.3,0.4 2.2,1.3 2.6,2.5 5.4,-0.7 11,-1.8 16,-3.6 -3.5,-0.2 -7.4,-0.6 -11.5,-1.3 -8.4,-1.3 -17.8,-3.8 -26.2,-7 m 63.8,79.1 c -0.4,0 -0.7,0 -0.7,0 -1.7,-0.1 -3.2,-1.2 -3.6,-2.9 -0.3,-1.1 -0.1,-2.2 0.5,-3.1 -0.2,-0.1 -0.5,-0.1 -0.8,-0.1 -0.9,0 -2,0.4 -3.2,1.1 -1.6,1 -3.7,0.6 -4.9,-0.8 -0.3,-0.4 -1.9,-2.4 -1.7,-5.1 0.1,-1.3 0.6,-2.4 1.4,-3.4 -4.9,-3.6 -8.7,-10.5 -5.2,-24.1 -6,3.9 -15.6,9.1 -25.3,11.4 -0.4,0.1 -0.9,0.1 -1.3,0.1 -0.6,-0.1 -14.6,-1.7 -24.5,-15.6 -0.7,-1 -0.9,-2.3 -0.5,-3.5 0.1,-0.2 0.2,-0.4 0.3,-0.6 0,0 0,0 0,0 -1.5,-0.1 -2.8,-1.1 -3.3,-2.5 -0.1,-0.3 -2.4,-6.6 -1.3,-14.2 0.3,-1.7 1.6,-3 3.3,-3.3 -0.8,-1 -1.3,-2 -1.6,-2.8 -1.5,-4.9 2,-9.4 2.4,-9.9 0.6,-0.7 1.3,-1.2 2.2,-1.3 -8.6,-3.7 -15.9,-8.1 -19.3,-12.8 -0.9,-1.2 -1,-2.8 -0.3,-4.1 0.1,-0.2 0.2,-0.3 0.3,-0.5 -6.4,-2.4 -12.6,-6.6 -16.1,-14.1 -0.6,-1.4 -0.4,-2.9 0.5,-4.1 0.4,-0.4 0.8,-0.8 1.3,-1 -4.8,-3.7 -8.6,-8.9 -10,-16.2 -0.1,-0.7 -0.1,-1.4 0.2,-2 l -0.7,-10.4 c -1.7,-4 -2.5,-8.5 -2.4,-13.2 0,-1.1 0.5,-2.1 1.3,-2.8 l -0.2,-2.8 3.2,-16 c 0.5,-2.7 1.4,-5.3 2.8,-7.8 0.6,-1.2 1.8,-1.9 3.1,-2 1.3,-0.1 2.6,0.5 3.4,1.6 0,0.1 1.5,2 3.7,4.9 -0.8,-2.9 -1.1,-5.8 -1,-8.8 0.5,-8.5 7.2,-16.3 7.5,-16.6 0.9,-1 2.2,-1.5 3.5,-1.3 1.3,0.2 2.4,1.1 3,2.3 0.1,0.2 5.3,12.6 12.1,24.4 -0.2,-7.1 1.5,-15.1 8.6,-20.7 1.1,-0.9 2.5,-1.1 3.8,-0.6 1.3,0.5 2.2,1.6 2.4,3 0,0.2 2.8,15.9 11.2,34.2 4.8,10.5 15.4,30.1 32.9,44.3 6.3,5.2 12.1,8.7 17.2,11.7 l 0.1,0.1 c -1.4,-7.1 -2.9,-20 2.1,-30.1 0.6,-1.2 1.8,-2 3.2,-2.1 1,-0.1 2,0.3 2.8,0.9 0.5,-6.3 2.3,-14.8 8.1,-22.8 0.9,-1.3 2.6,-1.9 4.2,-1.5 0.5,0.1 1,0.4 1.4,0.7 1.7,-6.5 5.4,-13.4 13.2,-18.2 1.4,-0.8 3.1,-0.8 4.3,0.2 0.8,0.6 1.3,1.5 1.5,2.4 3.7,-6.5 9.5,-12.4 18.6,-15.2 1.5,-0.5 3.1,0 4.1,1.2 0.6,0.7 0.9,1.5 0.9,2.4 6.1,-5.8 13.4,-9.8 21.8,-11.7 1.6,-0.4 3.3,0.3 4.1,1.8 0.9,1.4 0.7,3.2 -0.3,4.5 0,0 -0.2,0.2 -0.5,0.7 7.5,-5.9 16.1,-10.1 25.6,-10.1 1.7,0 3.5,0.1 5.2,0.4 1.5,0.2 2.7,1.3 3.1,2.8 0.4,1.4 0,3 -1.1,4 -0.1,0.1 -7.5,6.7 -15.1,14.2 -1.8,1.8 -3.6,3.7 -5.4,5.5 1,-0.1 2,-0.2 3,-0.2 2.8,0 5.5,0.5 8.1,1.4 1.4,0.5 2.4,1.8 2.6,3.3 0.1,1.5 -0.6,3 -1.9,3.7 -0.2,0.1 -21.2,12.3 -41.2,35.3 -3.8,4.4 -9.1,13 -14.2,21.3 -6.1,9.9 -10.5,16.9 -14,20.9 0,0 0,0 0,0 9.9,1.2 15.3,3.1 17.8,6.1 0.9,0.3 1.9,0.7 2.8,1.5 2.1,1.7 3.3,4.1 3.1,6.5 -0.2,3 -2.3,5.8 -6.1,8.1 -1.1,0.7 -2.5,0.8 -3.7,0.2 -0.8,-0.4 -1.4,-1 -1.7,-1.8 -3.6,1.6 -13,5.9 -22,12 -7.3,5 -17,13.2 -24.7,22.3 0.2,0.5 0.3,1 0.3,1.6 0,0.6 0.3,3 1.6,3.5 4.3,1.9 12.3,5.6 9.7,11.9 -1.5,3.6 -4.8,4.9 -7.4,4.9 -0.4,0 -0.6,0 -0.6,0 -1.4,-0.2 -2.6,-1.1 -3.1,-2.3 -0.1,-0.2 -0.2,-0.5 -0.2,-0.7 -0.5,1 -1.4,1.6 -2.5,1.9 -0.2,0.1 -1,0.2 -2,0.2 -3,0 -5.3,-1.3 -6.7,-3.6 -0.6,1.7 -1.1,3.3 -1.4,4.9 3.6,2 9.2,6 9,11.4 -0.6,4.6 -4.6,7.6 -10.7,7.6 z"
   id="path75" />
		<path
   class="st7"
   d="m 511.9,585.8 c 0,0 -2.1,-5.1 3.5,-3.5 5.9,1.6 3.7,4.6 3.7,4.6 0,0 2.9,0.3 4.1,-2.5 1.2,-2.8 -3.9,-5.1 -7.7,-6.9 -3.9,-1.7 -3.9,-7.1 -3.9,-7.1 -3,1.6 -2.1,8.2 -2.1,8.2 0,0 -2.8,2.4 -2.6,3.8 0.6,4.4 5,3.4 5,3.4 M 461.6,491.6 C 439,495.2 438.5,481 438.5,481 c 7.6,7.3 23.1,10.6 23.1,10.6 z m -1.3,-7.1 c -28.4,-4.8 -21.7,-18.2 -21.7,-18.2 5.9,10.8 21.7,18.2 21.7,18.2 z m -0.2,-8.4 c -29.8,-13.7 -18.9,-27.4 -18.9,-27.4 5.8,16.9 18.9,27.4 18.9,27.4 z M 570,449.8 c 5.9,-21.4 22.6,-41.4 22.6,-41.4 -32.1,7.3 -36,44.1 -36,44.1 -1.7,-14.2 9.5,-36 9.5,-36 -23.5,7.3 -22.5,39.2 -22.5,39.2 -4.4,-15.2 -1.1,-27 -1.1,-27 -16.5,10.2 -12,32 -12,32 -5,-4.8 -5.6,-14.1 -5.6,-14.1 -9.9,13.8 -7.1,29.3 -7.1,29.3 -3.6,-1.5 -6.6,-5.9 -6.6,-5.9 -6.5,13.1 -0.6,32.4 -0.6,32.4 15,11 7.6,21 7.6,21 3.5,-17 -11.8,-17.3 -32.3,-33.9 -15.5,-12.6 -26.8,-30.1 -34,-45.7 -8.7,-19 -11.5,-35.2 -11.5,-35.2 -13.2,10.5 -4,31.9 -4,31.9 l -1.1,1.4 c -11.2,-13.5 -21.6,-38.5 -21.6,-38.5 0,0 -6.1,7 -6.5,14.3 -1.1,17.4 20.6,35.8 20.6,35.8 -0.2,0.7 -0.5,2.9 -0.5,2.9 -11.6,-8 -29.8,-32.8 -29.8,-32.8 -13.4,24.9 28.5,46.1 28.5,46.1 l 0.2,2.7 c -16,-5 -35.3,-21 -35.3,-21 -0.8,28.2 35.9,33.2 35.9,33.2 l 0.2,2.4 c -12.5,-1.4 -33.3,-10.9 -33.3,-10.9 4.1,22 35.9,22.1 35.9,22.1 l 0.4,1.8 c -6.4,1.9 -28.5,-3.6 -28.5,-3.6 7.8,17 33.3,14.7 33.3,14.7 l 1,1.3 c -4.7,2.5 -18.6,2 -18.6,2 6.1,8.2 27.7,16.9 47.1,19.9 13.9,2.1 25,1.4 25,1.4 -16.9,15.7 -58.2,11.7 -58.2,11.7 -1,6.7 1.1,12.3 1.1,12.3 6.4,0.5 23.5,-1.7 23.5,-1.7 -3.7,2 -20.3,7.4 -20.3,7.4 9,12.7 21.7,14 21.7,14 13.1,-3.1 26.3,-12.1 28.8,-14.3 2.6,-2.2 4,-0.9 4,-0.9 -10.2,25 1.3,28.8 3,29.8 1.7,1 2,2.6 2,2.6 0,0 -0.9,-0.4 -3,1.3 -2.1,1.7 -0.2,4 -0.2,4 5.9,-3.6 9.5,-0.5 10.5,1.2 1,1.7 -1.2,3.2 -1.2,3.2 0,0 6.7,0.4 6.9,-3.9 0.2,-5 -9.3,-9 -9.3,-9 1.1,-18.7 25.6,-40.9 39.1,-50 11,-7.5 22.7,-12.3 23.9,-13 3.2,-1.7 3.8,2.4 3.8,2.4 5.9,-3.5 4.5,-6.7 2.6,-8.2 -1.4,-1.1 -2.9,-1.1 -2.9,-1.1 -0.8,-2.8 -6.9,-4.6 -15.8,-5.7 -8.9,-1.1 -23.2,-4.2 -23.2,-4.2 4.5,1.1 17.9,0.3 17.9,0.3 6,-2.7 21.9,-34 31,-44.6 20.7,-23.8 42.2,-36.2 42.2,-36.2 -13.4,-4.8 -26.1,6.6 -26.1,6.6 0,0 9.7,-10.5 19,-19.8 7.7,-7.7 15.2,-14.4 15.2,-14.4 -31,-5.1 -55.3,44.3 -55.3,44.3 z m -16.7,72 c 1.4,0.1 3.3,0.3 4.6,0.7 0.3,0.1 0.5,0.2 0.8,0.3 0.2,0.1 1.9,0.8 1.8,1.1 -0.1,0.2 -0.4,0.1 -0.5,0 -0.8,-0.3 -2.5,0.9 -3.1,1.4 0,0 -0.1,0 -0.1,0 -0.1,0 -0.1,-0.1 -0.1,-0.1 -0.5,-1.4 -1.8,-2.7 -3.3,-3.1 -0.1,0 -0.1,-0.1 -0.1,-0.2 -0.1,0 -0.1,-0.1 0,-0.1 z m -17.4,10.1 c -2.1,0.8 -4.7,3.2 -6.2,4.9 -0.1,0.1 -0.1,0.1 -0.2,0 -0.1,0 -0.1,-0.1 -0.1,-0.2 0.5,-1.3 0.5,-2.7 -0.3,-3.9 -0.3,-0.5 -0.9,-1 -1.4,-1.3 -0.1,0 -0.1,-0.1 -0.1,-0.2 0,-0.1 0.1,-0.1 0.2,-0.1 2.3,1.1 5.4,1.4 7.8,0.5 0.1,0 0.2,0 0.2,0.1 0.3,0.1 0.2,0.2 0.1,0.2 z m -8.1,-9.4 c -0.2,0.2 -0.5,0.3 -0.7,0.4 -0.1,0 -0.2,0 -0.2,-0.1 0,-0.1 0,-0.2 0,-0.2 0.2,-0.2 0.4,-0.3 0.7,-0.4 1.8,-1.5 0.9,-4 0,-5.7 0,-0.1 0,-0.2 0.1,-0.2 0.1,0 0.2,0 0.2,0.1 1.4,2.1 4.4,3.3 6.8,3.4 0.1,0 0.1,0.1 0.1,0.1 0,0.1 0,0.1 -0.1,0.2 -2.1,0.4 -5,1.2 -6.9,2.4 z m -0.7,1.4 c 1.9,1.6 4.7,2.6 7.2,2 0.1,0 0.2,0 0.2,0.1 0,0.1 0,0.2 -0.1,0.2 -1.6,0.6 -5,2 -6.1,3.2 -0.1,0.1 -0.1,0.1 -0.2,0 -0.1,0 -0.1,-0.1 0,-0.2 1.1,-1.9 0.4,-3.8 -1.2,-5.1 0,0 0,0 0,0 l -0.1,-0.1 c -0.1,-0.1 -0.1,-0.2 0,-0.2 0,-0.1 0.1,-0.1 0.3,0.1 z m -71.4,20.3 c 0,0 -15.4,-4.4 -21.3,-10.9 0,0 -6.2,7.6 3.8,10.3 9.9,2.7 17.5,0.6 17.5,0.6 z"
   id="path76" />
	</g>
	<g
   id="g135">
		
			<linearGradient
   id="SVGID_00000034057479535000124010000006128400195045389741_"
   gradientUnits="userSpaceOnUse"
   x1="257.16559"
   y1="256.0657"
   x2="753.9552"
   y2="257.06329">
			<stop
   offset="0.1423"
   style="stop-color:#805500"
   id="stop76" />
			<stop
   offset="0.2201"
   style="stop-color:#A87F28"
   id="stop77" />
			<stop
   offset="0.2969"
   style="stop-color:#C9A149"
   id="stop78" />
			<stop
   offset="0.36"
   style="stop-color:#DEB65D"
   id="stop79" />
			<stop
   offset="0.4016"
   style="stop-color:#E5BE64"
   id="stop80" />
			<stop
   offset="0.454"
   style="stop-color:#E4BB60"
   id="stop81" />
			<stop
   offset="0.6819"
   style="stop-color:#DFB254"
   id="stop82" />
			<stop
   offset="0.7426"
   style="stop-color:#A27820"
   id="stop83" />
			<stop
   offset="0.7746"
   style="stop-color:#875E08"
   id="stop84" />
			<stop
   offset="0.7933"
   style="stop-color:#8C630D"
   id="stop85" />
			<stop
   offset="0.8163"
   style="stop-color:#9B721A"
   id="stop86" />
			<stop
   offset="0.8416"
   style="stop-color:#B4892F"
   id="stop87" />
			<stop
   offset="0.8684"
   style="stop-color:#D7AB4D"
   id="stop88" />
			<stop
   offset="0.8736"
   style="stop-color:#DFB254"
   id="stop89" />
			<stop
   offset="1"
   style="stop-color:#DFB254"
   id="stop90" />
		</linearGradient>
		<path
   style="fill:url(#SVGID_00000034057479535000124010000006128400195045389741_)"
   d="m 417.9,261.8 c 5,-3.6 10,-7.3 15,-10.9 0.1,-0.1 0.3,-0.2 0.4,-0.3 0,0 0,0 0,-0.1 -0.1,0 -0.3,0.1 -0.4,0.1 l -19.1,0.1 -6.1,-18.8 -6.3,18.7 -19.2,-0.1 c -0.1,0 -0.1,0 -0.2,-0.1 0,0 0,0 0,0.1 0.1,0.1 0.2,0.2 0.4,0.3 5,3.7 10.1,7.3 15.1,11 0.3,0.2 0.3,0.4 0.2,0.7 -1.8,5.6 -3.6,11.2 -5.5,16.8 -0.2,0.5 -0.3,0.9 -0.5,1.5 0.2,-0.1 0.3,-0.2 0.4,-0.2 5.1,-3.7 10.2,-7.4 15.3,-11.1 0.2,-0.2 0.3,-0.3 0.3,-0.6 0,-0.9 0,-1.8 0,-2.7 v 0 c 0,0.9 0,1.8 0,2.8 0,0.3 0.1,0.4 0.3,0.6 5.1,3.7 10.2,7.4 15.3,11.1 0.1,0.1 0.2,0.1 0.3,0.2 -0.1,-0.2 -0.1,-0.4 -0.2,-0.5 -1.9,-5.9 -3.8,-11.9 -5.8,-17.8 -0.1,-0.4 0,-0.6 0.3,-0.8 z"
   id="path90" />
		
			<linearGradient
   id="SVGID_00000057847260950305877120000009580273003237294494_"
   gradientUnits="userSpaceOnUse"
   x1="257.16589"
   y1="254.0943"
   x2="753.95538"
   y2="255.0919">
			<stop
   offset="0.1423"
   style="stop-color:#805500"
   id="stop91" />
			<stop
   offset="0.2201"
   style="stop-color:#A87F28"
   id="stop92" />
			<stop
   offset="0.2969"
   style="stop-color:#C9A149"
   id="stop93" />
			<stop
   offset="0.36"
   style="stop-color:#DEB65D"
   id="stop94" />
			<stop
   offset="0.4016"
   style="stop-color:#E5BE64"
   id="stop95" />
			<stop
   offset="0.454"
   style="stop-color:#E4BB60"
   id="stop96" />
			<stop
   offset="0.6819"
   style="stop-color:#DFB254"
   id="stop97" />
			<stop
   offset="0.7426"
   style="stop-color:#A27820"
   id="stop98" />
			<stop
   offset="0.7746"
   style="stop-color:#875E08"
   id="stop99" />
			<stop
   offset="0.7933"
   style="stop-color:#8C630D"
   id="stop100" />
			<stop
   offset="0.8163"
   style="stop-color:#9B721A"
   id="stop101" />
			<stop
   offset="0.8416"
   style="stop-color:#B4892F"
   id="stop102" />
			<stop
   offset="0.8684"
   style="stop-color:#D7AB4D"
   id="stop103" />
			<stop
   offset="0.8736"
   style="stop-color:#DFB254"
   id="stop104" />
			<stop
   offset="1"
   style="stop-color:#DFB254"
   id="stop105" />
		</linearGradient>
		<path
   style="fill:url(#SVGID_00000057847260950305877120000009580273003237294494_)"
   d="m 479.2,259.9 c 5,-3.6 10,-7.3 15,-10.9 0.1,-0.1 0.3,-0.2 0.4,-0.3 0,0 0,0 0,-0.1 -0.1,0 -0.3,0.1 -0.4,0.1 l -19.1,0.1 -6.1,-18.8 -6.3,18.7 -19.2,-0.1 c -0.1,0 -0.1,0 -0.2,-0.1 0,0 0,0 0,0.1 0.1,0.1 0.2,0.2 0.4,0.3 5,3.7 10.1,7.3 15.1,11 0.3,0.2 0.3,0.4 0.2,0.7 -1.8,5.6 -3.6,11.2 -5.5,16.8 -0.2,0.5 -0.3,0.9 -0.5,1.5 0.2,-0.1 0.3,-0.2 0.4,-0.2 5.1,-3.7 10.2,-7.4 15.3,-11.1 0.2,-0.2 0.3,-0.3 0.3,-0.6 0,-0.9 0,-1.8 0,-2.7 v 0 c 0,0.9 0,1.8 0,2.8 0,0.3 0.1,0.4 0.3,0.6 5.1,3.7 10.2,7.4 15.3,11.1 0.1,0.1 0.2,0.1 0.3,0.2 -0.1,-0.2 -0.1,-0.4 -0.2,-0.5 -1.9,-5.9 -3.8,-11.9 -5.8,-17.8 0,-0.4 0,-0.6 0.3,-0.8 z"
   id="path105" />
		
			<linearGradient
   id="SVGID_00000039108797386961405800000016252903183117093561_"
   gradientUnits="userSpaceOnUse"
   x1="257.16611"
   y1="253.9711"
   x2="753.95569"
   y2="254.9687">
			<stop
   offset="0.1423"
   style="stop-color:#805500"
   id="stop106" />
			<stop
   offset="0.2201"
   style="stop-color:#A87F28"
   id="stop107" />
			<stop
   offset="0.2969"
   style="stop-color:#C9A149"
   id="stop108" />
			<stop
   offset="0.36"
   style="stop-color:#DEB65D"
   id="stop109" />
			<stop
   offset="0.4016"
   style="stop-color:#E5BE64"
   id="stop110" />
			<stop
   offset="0.454"
   style="stop-color:#E4BB60"
   id="stop111" />
			<stop
   offset="0.6819"
   style="stop-color:#DFB254"
   id="stop112" />
			<stop
   offset="0.7426"
   style="stop-color:#A27820"
   id="stop113" />
			<stop
   offset="0.7746"
   style="stop-color:#875E08"
   id="stop114" />
			<stop
   offset="0.7933"
   style="stop-color:#8C630D"
   id="stop115" />
			<stop
   offset="0.8163"
   style="stop-color:#9B721A"
   id="stop116" />
			<stop
   offset="0.8416"
   style="stop-color:#B4892F"
   id="stop117" />
			<stop
   offset="0.8684"
   style="stop-color:#D7AB4D"
   id="stop118" />
			<stop
   offset="0.8736"
   style="stop-color:#DFB254"
   id="stop119" />
			<stop
   offset="1"
   style="stop-color:#DFB254"
   id="stop120" />
		</linearGradient>
		<path
   style="fill:url(#SVGID_00000039108797386961405800000016252903183117093561_)"
   d="m 540.6,259.9 c 5,-3.6 10,-7.3 15,-10.9 0.1,-0.1 0.3,-0.2 0.4,-0.3 0,0 0,0 0,-0.1 -0.1,0 -0.3,0.1 -0.4,0.1 l -19.1,0.1 -6.1,-18.8 -6.3,18.7 -19.2,-0.1 c -0.1,0 -0.1,0 -0.2,-0.1 0,0 0,0 0,0.1 0.1,0.1 0.2,0.2 0.4,0.3 5,3.7 10.1,7.3 15.1,11 0.3,0.2 0.3,0.4 0.2,0.7 -1.8,5.6 -3.6,11.2 -5.5,16.8 -0.2,0.5 -0.3,0.9 -0.5,1.5 0.2,-0.1 0.3,-0.2 0.4,-0.2 5.1,-3.7 10.2,-7.4 15.3,-11.1 0.2,-0.2 0.3,-0.3 0.3,-0.6 0,-0.9 0,-1.8 0,-2.7 v 0 c 0,0.9 0,1.8 0,2.8 0,0.3 0.1,0.4 0.3,0.6 5.1,3.7 10.2,7.4 15.3,11.1 0.1,0.1 0.2,0.1 0.3,0.2 -0.1,-0.2 -0.1,-0.4 -0.2,-0.5 -1.9,-5.9 -3.8,-11.9 -5.8,-17.8 0,-0.4 0,-0.6 0.3,-0.8 z"
   id="path120" />
		
			<linearGradient
   id="SVGID_00000110437275156312925780000007312539644922210225_"
   gradientUnits="userSpaceOnUse"
   x1="257.16641"
   y1="255.696"
   x2="753.95587"
   y2="256.6936">
			<stop
   offset="0.1423"
   style="stop-color:#805500"
   id="stop121" />
			<stop
   offset="0.2201"
   style="stop-color:#A87F28"
   id="stop122" />
			<stop
   offset="0.2969"
   style="stop-color:#C9A149"
   id="stop123" />
			<stop
   offset="0.36"
   style="stop-color:#DEB65D"
   id="stop124" />
			<stop
   offset="0.4016"
   style="stop-color:#E5BE64"
   id="stop125" />
			<stop
   offset="0.454"
   style="stop-color:#E4BB60"
   id="stop126" />
			<stop
   offset="0.6819"
   style="stop-color:#DFB254"
   id="stop127" />
			<stop
   offset="0.7426"
   style="stop-color:#A27820"
   id="stop128" />
			<stop
   offset="0.7746"
   style="stop-color:#875E08"
   id="stop129" />
			<stop
   offset="0.7933"
   style="stop-color:#8C630D"
   id="stop130" />
			<stop
   offset="0.8163"
   style="stop-color:#9B721A"
   id="stop131" />
			<stop
   offset="0.8416"
   style="stop-color:#B4892F"
   id="stop132" />
			<stop
   offset="0.8684"
   style="stop-color:#D7AB4D"
   id="stop133" />
			<stop
   offset="0.8736"
   style="stop-color:#DFB254"
   id="stop134" />
			<stop
   offset="1"
   style="stop-color:#DFB254"
   id="stop135" />
		</linearGradient>
		<path
   style="fill:url(#SVGID_00000110437275156312925780000007312539644922210225_)"
   d="m 602,261.8 c 5,-3.6 10,-7.3 15,-10.9 0.1,-0.1 0.3,-0.2 0.4,-0.3 0,0 0,0 0,-0.1 -0.1,0 -0.3,0.1 -0.4,0.1 l -19.1,0.1 -6.1,-18.8 -6.3,18.7 -19.2,-0.1 c -0.1,0 -0.1,0 -0.2,-0.1 0,0 0,0 0,0.1 0.1,0.1 0.2,0.2 0.4,0.3 5,3.7 10.1,7.3 15.1,11 0.3,0.2 0.3,0.4 0.2,0.7 -1.8,5.6 -3.6,11.2 -5.5,16.8 -0.2,0.5 -0.3,0.9 -0.5,1.5 0.2,-0.1 0.3,-0.2 0.4,-0.2 5.1,-3.7 10.2,-7.4 15.3,-11.1 0.2,-0.2 0.3,-0.3 0.3,-0.6 0,-0.9 0,-1.8 0,-2.7 v 0 c 0,0.9 0,1.8 0,2.8 0,0.3 0.1,0.4 0.3,0.6 5.1,3.7 10.2,7.4 15.3,11.1 0.1,0.1 0.2,0.1 0.3,0.2 -0.1,-0.2 -0.1,-0.4 -0.2,-0.5 -1.9,-5.9 -3.8,-11.9 -5.8,-17.8 -0.1,-0.4 0,-0.6 0.3,-0.8 z"
   id="path135" />
	</g>
	
		<linearGradient
   id="SVGID_00000124161070542157725340000010387890247876065190_"
   gradientUnits="userSpaceOnUse"
   x1="148.26711"
   y1="744.45367"
   x2="670.073"
   y2="745.50153">
		<stop
   offset="0.1423"
   style="stop-color:#805500"
   id="stop136" />
		<stop
   offset="0.2201"
   style="stop-color:#A87F28"
   id="stop137" />
		<stop
   offset="0.2969"
   style="stop-color:#C9A149"
   id="stop138" />
		<stop
   offset="0.36"
   style="stop-color:#DEB65D"
   id="stop139" />
		<stop
   offset="0.4016"
   style="stop-color:#E5BE64"
   id="stop140" />
		<stop
   offset="0.454"
   style="stop-color:#E4BB60"
   id="stop141" />
		<stop
   offset="0.6819"
   style="stop-color:#DFB254"
   id="stop142" />
		<stop
   offset="0.7426"
   style="stop-color:#A27820"
   id="stop143" />
		<stop
   offset="0.7746"
   style="stop-color:#875E08"
   id="stop144" />
		<stop
   offset="0.7933"
   style="stop-color:#8C630D"
   id="stop145" />
		<stop
   offset="0.8163"
   style="stop-color:#9B721A"
   id="stop146" />
		<stop
   offset="0.8416"
   style="stop-color:#B4892F"
   id="stop147" />
		<stop
   offset="0.8684"
   style="stop-color:#D7AB4D"
   id="stop148" />
		<stop
   offset="0.8736"
   style="stop-color:#DFB254"
   id="stop149" />
		<stop
   offset="1"
   style="stop-color:#DFB254"
   id="stop150" />
	</linearGradient>
	<path
   style="fill:url(#SVGID_00000124161070542157725340000010387890247876065190_)"
   d="m 510.4,750.8 c 5.3,-3.8 10.5,-7.6 15.8,-11.5 0.2,-0.1 0.3,-0.2 0.4,-0.3 0,0 0,0 0,-0.1 -0.1,0 -0.3,0.1 -0.4,0.1 l -20.1,0.1 -6.4,-19.8 -6.6,19.7 -20.2,-0.1 c -0.1,0 -0.2,0 -0.2,-0.1 0,0 0,0 0,0.1 0.1,0.1 0.3,0.2 0.4,0.3 5.3,3.8 10.6,7.7 15.9,11.5 0.3,0.2 0.4,0.4 0.2,0.8 -1.9,5.9 -3.8,11.8 -5.7,17.6 -0.2,0.5 -0.3,1 -0.5,1.6 0.2,-0.1 0.3,-0.2 0.4,-0.3 5.3,-3.9 10.7,-7.8 16,-11.7 0.2,-0.2 0.3,-0.4 0.3,-0.6 0,-1 0,-1.9 0,-2.9 v 0 c 0,1 0,1.9 0,2.9 0,0.3 0.1,0.5 0.3,0.6 5.4,3.9 10.7,7.8 16.1,11.7 0.1,0.1 0.2,0.1 0.3,0.2 -0.1,-0.2 -0.1,-0.4 -0.2,-0.5 -2,-6.2 -4,-12.4 -6.1,-18.7 0,-0.1 0,-0.3 0.3,-0.6 z"
   id="path150" />
	<g
   id="g151">
		<g
   id="g150">
			<defs
   id="defs150">
				<path
   id="SVGID_00000086685164856854922530000008896749347015815835_"
   d="m 353.1,426 v -97.4 c 96.7,-20 196.5,-20 293.2,0 v 0 97.4 c 0,8.5 -0.6,62.2 -0.6,62.2 0,95.6 -26,157.5 -146.2,204.3 C 379.4,645.6 354,583.7 354,488.2 Z" />
			</defs>
			<clipPath
   id="SVGID_00000091003826255216573620000013059510792124721851_">
				<use
   xlink:href="#SVGID_00000086685164856854922530000008896749347015815835_"
   style="overflow:visible"
   id="use150" />
			</clipPath>
		</g>
	</g>
</g>
</svg>
