<svg height="318.127049" viewBox="0 0 61.947 62.908" width="314.339822" xmlns="http://www.w3.org/2000/svg" xmlns:xlink="http://www.w3.org/1999/xlink"><clipPath id="a"><path d="m23 36h120v134.08h-120z"/></clipPath><clipPath id="b"><path d="m0 77h165.34v45h-165.34z"/></clipPath><g stroke-width="2.7696" transform="matrix(.36106 0 0 .36106 1.2893 .71627)"><g clip-path="url(#a)" stroke-width="2.7696"><path d="m23.863 36.617v89.438c0 7.0625.90625 9.7852 3.082 13.562l.12109.21484.13672.20313c12.602 18.812 33.535 30.043 55.992 30.043s43.391-11.23 55.992-30.043l.13672-.20313.12109-.21484c2.1719-3.7734 3.082-6.4961 3.082-13.562v-89.438h-118.66" fill="#fff" fill-rule="evenodd"/></g><path d="m135.38 110.73v15.324c0 6.0977-.70703 7.5312-2.1289 10.008-10.863 16.219-29.23 26.879-50.059 26.879-20.828 0-39.191-10.66-50.059-26.879-1.4219-2.4766-2.1289-3.9102-2.1289-10.008v-82.289h104.37zm3.2109-20.262v-49.914h-110.8v85.5c0 6.4805.77734 8.5117 2.5586 11.605l.05469.0977.05859.0937c11.871 17.719 31.582 28.297 52.727 28.297s40.855-10.578 52.727-28.297l.0586-.0937.0547-.0937c1.7773-3.0938 2.5586-5.125 2.5586-11.609v-35.586" fill="#071c3a"/><path d="m139.36 116.27v9.7812c0 6.6641-.8086 8.7695-2.6602 11.984l-.0664.11719-.0742.11328c-12.016 17.934-31.961 28.637-53.359 28.637s-41.348-10.703-53.359-28.637l-.07422-.11328-.06641-.11719c-1.8516-3.2188-2.6602-5.3203-2.6602-11.984v-86.266h112.32zm1.7812-25.262v-53.004h-115.88v88.047c0 7.0586.92578 9.4453 2.8945 12.871l.09766.17188.11328.16406c12.344 18.426 32.844 29.426 54.836 29.426s42.492-11 54.836-29.426l.11328-.16406.0937-.17188c1.9688-3.4219 2.8984-5.8086 2.8984-12.871v-35.043" fill="#071c3a" fill-rule="evenodd"/><path d="m73.102 66.848c-1.8164 0-3.293-1.5898-3.293-3.5547 0-1.9648 1.4766-3.5586 3.293-3.5586s3.2891 1.5938 3.2891 3.5586-1.4727 3.5547-3.2891 3.5547zm3.2148-20.059.01563 10.996c-1.1875-1.1641-2.7734-1.8672-4.5039-1.8672-3.7031 0-6.7031 3.2422-6.7031 7.2422s3 7.2383 6.7031 7.2383c1.75 0 3.332-.73438 4.5273-1.918v1.7852h4.4531l-.0039-23.477zm18.566 19.492h-4.1367v-14.797h2.8867c1.2656 0 2.293 1.082 2.293 2.418 0 1.332-1.0273 2.4141-2.293 2.4141h-1.5039v4.1055h2.7539c1.5352 0 2.6992 1.3047 2.6992 2.9258-.05469 1.6719-1.0273 2.8242-2.6992 2.9336zm3.625-8.4609c1.1797-1.1602 1.9023-2.7188 1.9023-4.4336 0-1.5508-.56641-2.9766-1.5547-4.0977-1.0312-1.1953-2.8594-1.7266-5.3281-1.7266h-7.3906v22.699h9.5469c3.6602-.0625 6.6055-2.9922 6.6055-6.5625 0-2.5977-.86718-4.4492-3.7812-5.8789zm22.027 12.457h4.3242v-23.312h-4.3242zm-7.2656-5.7656c0 1.3633-1.1367 2.4688-2.5391 2.4688-1.3984 0-2.5352-1.1055-2.5352-2.4688v-8.1914h-4.4023v9.0625c0 3.0664 3.0977 5.5547 6.9258 5.5547 3.8242 0 6.9258-2.4883 6.9258-5.5547v-9.0625h-4.375zm-64.238-10.281c0-3.707-2.918-6.7109-6.5156-6.7109-.11328 0-.61328.0039-.72266.0078h-7.582v22.719h4.6016v-18.801l2.7461-.02344c1.6992 0 2.9883 1.332 2.9883 2.9727s-1.3789 2.9727-3.0742 2.9727l-1.0703.02734v5.4102l4.5977 7.4414h5.4219l-6.3555-9.4961c2.8516-.71484 4.9648-3.3633 4.9648-6.5195zm5.0469 7.2734c0-1.5312 1.2148-2.7734 2.7109-2.7734s2.7109 1.2422 2.7109 2.7734zm2.6719-5.9492c-4.0508 0-7.3359 3.3984-7.3359 7.5898 0 4.1953 3.2852 7.5977 7.3359 7.5977 3.0938 0 5.5078-1.4297 6.75-3.6719l-3.6055-1.6992c-.45703 1.0117-1.5312 1.7266-2.7812 1.7266-1.668 0-3.0195-1.2695-3.0195-2.832 0-.10156-.03906-.05859-.02734-.15625l9.8047.0039c.03125-.30859.04297-.62891.04297-.95312.066401-4.9102-3.1133-7.6055-7.1641-7.6055zm71.098-8.5898v23.312h4.3242v-23.312z" fill="#e31147"/><path d="m114.03 99.91c0 17.125-13.879 31.004-31 31.004-17.125 0-31.004-13.879-31.004-31.004 0-17.121 13.879-31.004 31.004-31.004 17.121 0 31 13.883 31 31.004" fill="#fad105" fill-rule="evenodd"/><g clip-path="url(#b)" stroke-width="2.7696"><path d="m109.99 109.97c-.3125-.60156-1.3945-1.9297-1.2539-2.7695.79688.0977 2.0078.10547 2.4492.13281-.13672.25391-1.043 2.3281-1.1953 2.6367zm55.277 9.2109c-.0586-.24219-.15625-.5-.23047-.70313l-.0703-.1914c-.0586-.15235-.11328-.30078-.16797-.46485-.0273-.0742-.0508-.14453-.0625-.20703-.008-.0469-.0117-.0898-.008-.13672.0781-.8789-.14453-1.3359-.48828-1.9336-.26563-.46875-.64453-.65234-.89453-.66016-.0625.17969-.23829.29688-.42969.29688-.0273 0-.0547-.004-.0781-.008-.25-.0391-.42187-.28125-.39453-.53125.008-.0625.0156-.125.0195-.19532.008-.23437-.043-.44531-.16015-.66406-.29688-.55078-2.4297-2.3047-3.2383-2.3047-.65235 0-1.3438.35938-1.8398.96485-.0898.10937-.22265.16797-.36328.16797h-.043c-.15625-.0156-.29297-.10547-.36719-.24219-.0703-.13281-.13281-.27344-.1875-.42578-.14453-.38282-.23046-.77735-.3125-1.1562l-.0625-.28907c-.22656-.98437-.55859-1.9805-1.875-2.3633-.10937-.0312-.24609-.0586-.41796-.0703-.14063-.0156-.29688-.0195-.45313-.0273h-.12109c-.26563-.008-.54297-.0117-.8125-.0547-.53907-.0781-.89844-.25391-.89844-.85938 0-.0508.008-.10156.0234-.15234l.14453-.41797c.10937-.30469.26172-.77344.38281-1.3281.22656-1.0352.24609-1.9844.0508-2.8203-.0312-.15234.0117-.30859.11719-.42187.0859-.0977.21094-.15234.33984-.15234.0234 0 .0469.004.0703.008.54296.082.98046.0898 1.1016.0898 2.8125 0 7.2734-1.8359 7.2734-6.7617 0-2.8281-2.293-5.5195-4.2148-7.2773-.125-.11719-.17969-.29297-.13672-.45703.0391-.16797.16797-.29688.33594-.33984 2.7305-.71484 4.2383-2.5352 4.2383-5.1211v-.17578c0-.40234 0-.86328-.0781-1.3516-.11328-.6875-.36719-1.3242-.77344-1.9453-.043-.06641-.11328-.13672-.26172-.13672-.0586 0-.10156.01172-.11719.01563-.10937.02734-.22265.10156-.30468.15234-.25391.16797-.6211.48047-.91407.73438-.33593.28516-.73437.49609-1.3008.6875-.33984.11328-.69531.20703-1.0742.30859-.19922.05078-.40234.10547-.61328.16406-1.3047.36328-2.7266.89453-4.3086 2.2852-.72266.64062-1.2266 1.6992-1.2734 2.7031-.043.84375.26953 1.7188.96094 2.668.59765.82812 1.3906 1.6055 2.2226 2.3984l.29688.28125c.30469.28906.60156.57422.88672.85938.43359.42969.75781.78516 1.0273 1.1094.65625.8125.96485 1.4766.96485 2.0977 0 1.3203-.94532 2.2109-2.3789 2.2109-1.5859-.01172-2.8047-.62109-4.5-1.7422-.25781-.17188-.52344-.34766-.79688-.53516-.5625-.37891-1.1445-.76953-1.793-1.1758-1.1719-.73438-2.2578-1.3164-3.4141-1.832-.60937-.27344-1.2148-.48438-1.8984-.66797-.49219-.13281-.95704-.23047-1.4102-.32422l-.21875-.04297c-1.0352-.21875-1.9023-.43359-2.8242-1.0391-.26172-.17578-.53516-.35938-.8125-.55078-.48047-.32812-.98047-.66797-1.4883-.98438-.98047-.60938-1.7695-.99609-2.4883-1.2148-.22266-.06641-.45313-.11328-.75-.16016-.125-.01953-.25391-.03516-.37891-.05078l-.30078-.03906c-.46094-.0625-.85547-.15625-1.2734-.39453-.26172-.15625-.51172-.32031-.79297-.52734-.19921-.14453-.38671-.29688-.58203-.44922l-.13281-.10547c-.49219-.38281-1.043-.79688-1.8828-1.2539-1.2695-.6875-2.543-1.0273-3.6328-1.293l-.21485-.05078c-.42164-.10157-.78883-.18751-1.1013-.29298-.17969-.05859-.32031-.11328-.42187-.16797-.0664-.03516-.125-.07813-.15235-.09375-.0312-.02734-.0586-.05469-.0859-.08594-2.7148-3.4141-5.9688-3.6797-6.9023-3.6797-.21484 0-.41406.01172-.60156.03125-1.0898.11719-2.3906 1.0781-3.5195 2-.41016.33594-.82422.69141-1.2461 1.0508-.85937.73047-1.7422 1.4883-2.6133 2.1055-4.4961 3.1992-6.125 4.4805-8.2539 6.8047-2.8789 3.1484-3.7852 7.1406-4.582 10.664l-.05859.25391c-.38672 1.7109-.78516 3.4805-1.375 5.1016-.69141 1.8984-1.5352 3.3359-2.6641 4.5156-.54688.57032-1.0039 1.0078-1.3984 1.3359-.26562.21875-.46484.35547-.63672.47656l-.11719.082c-.47266.33593-.66016.76953-.52344 1.2109.17578.5625.89844 1.1445 2.1172 1.1641.13672.004.26953.0703.35547.18359.08984.10937.12109.25391.08984.39062-.05078.21094-.01172.39063.12109.5625.33203.42969 1.125.67188 1.5742.6836h.19141c2.1523 0 4-.78906 5.5-2.3438.09375-.0977.21484-.14453.33594-.14453.11328 0 .22656.043.31641.12109.59375.55078 1.3633.82813 2.3438.84766h.10547c.45703 0 .91406-.0508 1.332-.0977.21094-.0234.41406-.043.60547-.0586.10547-.004.21094-.0117.30469-.0117.0703 0 .13671 0 .19921.008.25391.0195.57813.0977 1.0274.25391.30859.10547.64062.23047.97656.35937l.30078.11719c.65625.25 1.6484.62891 2.4024.62891.043 0 .0859 0 .125-.004 1.6953-.10547 2.3281-1.3672 2.5547-2.1055.0625-.19922.24219-.33203.44922-.33203h.0156c.21093.008.39062.15234.4375.35937.043.17969.0898.35157.14062.51954.26563.89453.61719 1.4922 1.1367 1.9414.16016.14063.36328.22656.66016.27344.25.043.60937.0625 1.1367.0703.10156 0 .19921.0312.27734.0937.0586.043.13672.11719.25781.23828.10938.10547.22266.22266.32813.31641.0977.082.24218.19531.41797.25391 2.375.80859 5.4688 1.6836 7.0195 1.707h.0547c2.1172 0 2.8398-2.0274 3.0508-2.9024.043-.17968.18359-.3164.36328-.34765 1.9688-.39063 3.0508-3.3516 3.0469-3.8633-.0117-.95313-.3789-1.332-1.3242-1.3984l-3.4375-.004c-.0742 0-.14843.0117-.22656.0352-.043.0117-.0859.0156-.12891.0156-.15625 0-.30859-.0781-.39453-.21484-.125-.19531-.26172-.28906-.49218-.34375-.17188-.0391-.30469-.17578-.34766-.34766-.0391-.17187.0195-.35156.15625-.46484.0703-.0586.13672-.12109.20312-.17969.0898-.082.19922-.125.32032-.125h.0195c.46875.0195 1.3789.0547 2.2461.0547.38672 0 .76172-.008 1.082-.0273.69141-.0352 1.2695-.10547 1.8789-.17579.95703-.10937 1.9453-.22265 3.4297-.22265l3.2188.17578c.6914 0 1.3164-.0898 1.8672-.26563.043-.0156.0937-.0234.14063-.0234.0898 0 .17578.0273.2539.0742.11329.0742.19141.19921.21094.33593.20703 1.625.74219 3.0625 1.5469 4.1524.20703.28515.46875.52734.82422.76953.18359.125.375.24219.57031.35937.11328.0664.22656.13672.33594.20703.85156.53125 1.9062 1.1914 3.2266 1.1914.35156 0 .71875-.0469 1.082-.14062.39453-.10157.79297-.15235 1.207-.15235.20703 0 .41406.0156.60547.0352.52344.0586.98828.17578 1.3672.26953l.0977.0234c.61328.15234 1.1914.39453 1.7695.73828.47657.28906.87891.58984 1.2656.88672l.10547.0781c.76953.58594 1.5703 1.1914 2.6836 1.1914.043 0 .0859-.004.13281-.004.0742-.004.16016-.0273.19922-.0352.0586-.0195.13282-.043.21485-.0703.15234-.0547.33203-.1289.51172-.19922.17578-.0664.37109-.14453.59765-.1914.0273-.004.0586-.008.0898-.008.15234 0 .29687.0742.38671.20312.0586.0859.11329.18359.17969.28125.10938.17969.22266.36719.3711.55469.42968.55469 1.2109 1.2969 3.0391 1.3438.16797.004.32812.004.48047.004.95312 0 1.5391-.0742 1.8008-.11718.0273-.004.0508-.004.0781-.004.0937 0 .1875.0273.26563.082.19531.13672.40234.19922.63281.19922.49219 0 1.2188-.14844 1.8125-.36328.35156-.13281.64063-.28125.85938-.44141.27734-.20703.4414-.4375.48046-.68359.0273-.18359.008-.40625-.0586-.67578m-107.55-11.113c-.32031.39062-.79688.51172-1.2266 1.2812-.87891-.33985-1.0312-1.4922-1.1914-1.9883.69922-.12891 2.3477-.44141 3.2109-.57422-.35547.44922-.61328.7539-.79297 1.2812zm20.734 3.6211c-.87891-.5-1.4062-1.2656-1.7617-1.8789-.15625-.26562-.29687-.53515-.4375-.79687l-.16406-.30859c-.17578-.32813-.38672-.70313-.63672-1.0274-.09766-.12109-.21484-.25-.33594-.3789l-.35547-.36719c-.10938-.11719-.21484-.23438-.30078-.34375-.08594-.10938-.14453-.20313-.17578-.28125-1.5469-3.9609-1.9102-6.207-2.4688-10.156-.28906-2.0312-1.5312-3.6758-3.543-6.1406-.25391-.30859-.53125-.67187-.83203-1.0547-.20703-.26562-.41797-.54297-.63672-.81641-.66016-.83594-1.1992-1.4531-1.625-1.8711-.72266-.60547-1.3633-1.1484-1.9375-1.6367-.82031-.69922-1.5156-1.2891-2.1562-1.8164-1.2109-.99219-2.1406-1.6953-3.2148-2.418-1.4961-1.0117-3.0977-1.5234-4.7578-1.5234-1.6953 0-2.9414.54688-3.3672.83594-1.4258.97266-2.5039 1.5742-3.7148 2.0781-.87891.36328-1.7891.66016-2.9414 1.0391-.37109.12109-.76562.25-1.1953.39453-1.3125.4375-2.2422 1.1992-2.9023 1.8125-.16016.15234-.3125.29688-.45703.4375-.16016.16016-.31641.30859-.46094.44141-.29688.26953-.50781.41797-.69531.48438-.19922.07031-.51953.12109-.98047.15234-.24219.01563-.49219.02734-.73438.03906-.17969.0078-.35547.01562-.51953.02344-1.5039.08984-2.7148.9375-3.4922 1.5664-.40234.32812-.78125.67188-1.1445 1.0039l-.17188.16016c-.46094.41406-.78516.69531-1.0977.89453-1.0664.69141-2.0781.78906-3.1875.89844-.57031.05859-1.1562.11719-1.7891.24609-.75.15625-1.4609.39453-2.1719.72656-.79688.375-1.6016.85547-2.6094 1.5547-.4375.30469-.86328.61328-1.2852.92188-.375.27344-.74609.54297-1.1172.80469-1.6641 1.1641-3.0938 1.9414-4.6406 1.9414-1.5273 0-2.6133-.89453-2.7617-2.2773-.12891-1.2227.49219-2.4531 1.7578-3.4766l.69531-.55859c.51953-.41406 1.0039-.80469 1.4453-1.1797.73438-.62891 1.2305-1.1367 1.6172-1.6445.94922-1.2461 1.1914-2.5312.78125-4.168-.36719-1.4648-1.4961-2.4648-3.4492-3.0508-.69922-.21094-1.4102-.33984-2.0742-.44531l-.23047-.03906c-.20312-.031253-.39062-.062503-.55078-.089846-.21484-.039063-.36328-.078126-.44922-.11328-1.0586-.47266-3.3672-2.0156-3.8281-2.3281l-.1875-.125-.12891.1875c-.42188.60547-.75391 1.082-1.0078 3.1836-.27734 2.3203 1.6367 5.1523 4.9258 5.6719.18359.02734.33203.16406.37891.34375.050781.17969-.015625.36719-.16016.48438-3.4844 2.7383-4.2266 3.9141-4.4102 6.9883-.10938 1.9102.55469 3.7812 1.832 5.1367 1.3984 1.4805 3.4219 2.2656 5.8555 2.2656.64844 0 1.3359-.0586 2.0352-.16797.02344-.004.05078-.004.07422-.004.10156 0 .20703.0352.28906.10156.10156.0781.16406.19922.17578.32812.16016 2.1406.55078 3.8828 1.0352 4.6602.11719.1875.08594.4375-.08203.58984-.14844.13672-.38281.27344-.68359.38672-.74219.29297-1.8711.47266-2.9922.47266-.69922 0-1.2227.48047-1.6406 1.5156-.13672.33594-.25.69141-.35938 1.0391l-.02734.0977c-.05859.17578-.10938.33985-.16406.48047-.04687.13672-.09766.25781-.15234.35547-.14062.25-.34766.49609-.63281.75391-.089844.0742-.19922.11328-.3125.11328-.023438 0-.054688 0-.078126-.004-.14062-.0273-.26172-.10937-.32812-.23437-.34375-.6211-.88672-1.0156-1.6094-1.1719h-.015631l-.074219-.004c-1.0664 0-2.9141.90625-3.5977 2.6016-.0625.15625-.20703.26953-.37891.28906l-.085937.0117c-.85156.0898-1.3867.48437-1.6914 1.2422-.125.32031-.20312.67968-.26172.99609l-.046875.23047c-.046875.26172-.097657.52734-.16797.78515-.050781.20704-.125.38672-.23438.58985-.054687.0977-.10938.1914-.16406.27734-.039062.0625-.078124.12891-.11328.1875-.1875.34766-.28516.70313-.13281 1.3125.070312.27735.28906.51563.65234.71485.26953.14453.61719.27343 1.0352.375.74219.17578 1.4766.23437 1.6211.23437.10156 0 .20313-.0273.30078-.082.070312-.043.14062-.0937.21875-.15234.082031-.0664.19922-.10547.30859-.10547.023437 0 .046874 0 .070312.004l.34766.0664c.28516.0547.64062.125.99219.19922l.054687.008c.33984.0703.67188.13672.94141.1875.14453.0273.27734.0508.37109.0625.10938.0156.19531.0234.24609.0234h.00391c1.4688-.0664 2.0898-.64063 2.5039-1.1914.11328-.15234.21875-.3164.32031-.48828l.16797-.28125.125-.21484c.11719-.20313.23828-.39453.37109-.57422.08984-.1211.23047-.1875.375-.1875.04297 0 .08203 0 .12109.0117.16797.0469.33984.0781.48438.10547.33984.0547.65234.0859.78516.0937.09766.008.19141.0117.28516.0117 1.3906 0 2.4258-.77343 3.2852-1.5039l.28516-.23828c.12891-.11328.25781-.22657.38672-.33594.17188-.14063.40234-.32422.63672-.48047.41406-.27734.76953-.40625 1.1133-.40625l.08594.004c.33203.0195 1.5898.10937 3.7227.44922.09375.0117.18359.0195.28125.0195.47656 0 1.0898-.16407 1.8203-.49219.52344-.23438 1.125-.5625 1.7383-.94141.12891-.082.28516-.15625.47266-.24218l.05469-.0234c.17578-.0781.35938-.16406.55078-.26172.35156-.17969.86328-.47656 1.2773-.99219.24219-.30469.57031-.94922.89062-1.5976l.34766-.71094c.19141-.39453.39453-.8125.60156-1.2266.08203-.16016.24219-.25782.42188-.25782h.12891c.66406 0 1.457-.10156 2.1445-.20312.30469-.043.60156-.0898.88672-.13672.63281-.0977 1.1797-.18359 1.5859-.19922.10156 0 .37109.0156.74609.043l.84375.0547c1.0664.0664 1.9336.0977 2.6523.0977.42969 0 .80859-.0117 1.125-.0352.57031-.0391 1.0938-.12891 1.5117-.25391.11719-.0352.24609-.0781.375-.13672.05859-.0234.125-.0352.1875-.0352.11719 0 .23828.043.32422.1289.23438.23047.48047.45703.73047.67969.14453.12109.19531.32031.13672.5-.05859.17578-.21875.30078-.40625.31641-.09375.004-.1875.0156-.27734.0273-.29687.043-.83594.16016-1.1094.51172-.08984.11719-.22656.18359-.36719.18359-.06641 0-.12891-.0156-.1875-.0391-.06641-.0312-.12891-.0547-.19922-.0703-.14453-.043-.28125-.0469-.39844-.0508h-.21875l-.23828.004h-.12891c-.42578 0-1.418 0-2.2773.14063-.52734.0859-.94531.21093-1.2422.3789-.28125.16016-.60938.44922-.58203.92578.05078.87891 1.2891 3.2578 2.1328 4.1016.16406.16406.71875.33984 1.3359.33984.0625 0 .12891-.004.19531-.008h.03516c.17188 0 .33203.0977.41406.2539.86328 1.7031 2.3594 2.8438 3.7188 2.8438h.08984c1.3008-.0508 4.8125-1.3164 7.2734-2.4726.03125-.0156.0625-.0273.09766-.0352.07813-.0156.17188-.0312.26563-.043.14844-.0195.30859-.0391.48437-.0586l.25-.0312c.54297-.0625 1.1602-.16016 1.6094-.375.41406-.19531 1.0156-.96875 1.5352-1.9727.08203-.15625.24219-.2539.41406-.2539.01563 0 .03125.004.04687.004.1875.0156.34766.14453.40234.32813.0625.20312.13281.3789.21875.54297.41797.78906 1.168 1.1914 2.2266 1.1914.05859 0 .11328-.004.17187-.004.72656-.0273 1.5312-.27344 2.2227-.5l.39453-.12891c.59766-.19922 1.1602-.38672 1.6836-.48047.1875-.0352.39844-.0508.64844-.0508.10938 0 .23047.004.35156.008.22266.0117.44531.0312.67188.0469.14844.0156.30078.0234.45312.0352.21484.0156.4375.0273.67188.0273.64453 0 1.1445-.0937 1.5977-.3125.65625-.26953 1.1641-.63672 1.5039-.87891l.12109-.0898c.08203-.0586.17969-.0898.27734-.0898.10938 0 .21875.0391.30859.1211.91797.8164 2.9023 2.1875 5.8203 2.1875.09766 0 .19922 0 .29688-.004.69531-.0195 1.2383-.25 1.5352-.64453.19531-.26562.25781-.58203.17578-.89844-.03125-.12109-.0078-.25781.05859-.36718.07031-.10938.18359-.1875.3125-.21094.48047-.0859.86719-.25391 1.1523-.50781.25781-.22657.42578-.5586.42969-.84766 0-.19531-.07031-.35938-.21875-.49609-.31641-.29688-.5-.40625-1.4258-.92188" fill="#fff"/></g><path d="m67.414 81.324c0-8.5781 6.9531-15.531 15.531-15.531 8.5781 0 15.527 6.9531 15.527 15.531 0 8.5742-6.9492 15.527-15.527 15.527-8.5781 0-15.531-6.9531-15.531-15.527" fill="#fff"/><path d="m71.273 89.699c4.5273 3.2695 10.91 3.7891 15.898 1.1094 5.4219-2.8047 8.7031-8.582 8.2031-14.812-.09375-.90234-.23828-1.7812-.47656-2.6367 1.5312 2.3008 2.4102 5.0273 2.4102 7.9648 0 7.9297-6.4297 14.363-14.363 14.363-4.8086 0-9.0625-2.3633-11.672-5.9883" fill="#d1d1d1"/><path d="m78.711 84.91c-3.3594-.80859-5.6523-1.6211-5.6523-1.6211-.36328-3.4688-.05469-6.4883-.05469-6.4883 1.4531-.75781 5.3945-2.5195 5.3945-2.5195 1.875 2.1289 3.668 4.9805 3.668 4.9805-.86719 1.6758-3.3555 5.6484-3.3555 5.6484zm-5.5391-14.117c-.33594.55078-1.3242 2.2109-2.2109 4.1875-.83984 1.0508-1.5703 2.1172-1.8867 2.5859.71094-2.6328 2.1562-4.9688 4.0977-6.7734zm15.074 8.3555s1.2578-2.6289 2.7695-4.7539c0 0 2.9102 1.3711 4.2773 2.4883 0 0 .50391 1.5664.17188 6.1523 0 0-1.7383 1.0078-4.2539 1.625 0 0-1.707-2.8828-2.9648-5.5117zm-6.5156 10.77 6.2109-.16797 1.1992 3.3828c-2.3477 1.3984-5.1719 2.1289-5.1719 2.1289-2.9688-.64453-4.6719-1.9336-4.6719-1.9336zm1.2148-22.961c1.8945 0 3.7031.36719 5.3594 1.0312-.05859.26953-.26172 1.0273-.83984 1.9883-2.9961-.39062-6.3242-.08594-6.3242-.08594l-2.7656-2.1914c1.4375-.48047 2.9727-.74219 4.5703-.74219zm-9.207 25.395c-2.3789-1.9883-4.1055-4.7305-4.8086-7.8633.76953.79688 2.2539 2.3242 2.2539 2.3242.89844 1.8477 3.1328 5.0625 3.1328 5.0625-.16016.17969-.41406.36328-.57812.47656" fill="#071c3a" fill-rule="evenodd"/><path d="m57.867 152.56 5.8867 2.8398 2.8398-5.8828-1.9609-.94922-1.8945 3.9219-1.9609-.94532 8.1875-16.969-1.9648-.94921zm14.902-9.4609 2.1445.38281.77344-4.2891 2.0859.375-7.1836 15.648-.38281 2.1445 6.4336 1.1562 1.1562-6.4336-2.1445-.38672-.76953 4.293-2.0898-.37891 7.1836-15.645.38672-2.1445-6.4375-1.1602zm-13.504-11.801 1.7148 1.3477-4.4805 5.6914-1.7148-1.3476zm-13.371 13.465 1.7148 1.3477 5.8281-7.4062 1.7148 1.3477-5.8281 7.4062 1.7109 1.3476 11.094-14.094c1.1094-1.4141.86328-3.4805-.54688-4.5938-1.4141-1.1094-3.4805-.86328-4.5938.55078zm41.016 14.027 4.3281-.51953c1.2031-.14063 2.0508-1.2188 1.9062-2.4219l-.75391-6.3438c-.15625-1.2891-.64844-1.6758-1.1992-1.8164.49219-.35547.88672-.78907.76953-1.7812l-.78906-6.6094c-.14453-1.1992-1.2227-2.0508-2.4219-1.9062l-4.3281.51563zm-.06641-18.977 2.1641-.25782.85547 7.1953-2.1602.25781zm1.1172 9.3594 2.1641-.26172.85547 7.1953-2.1641.25782zm11.91-15.449-2.0234.8086 7 17.5-2.0234.8125-7-17.5-2.0234.80859 6.6602 16.652c.66797 1.668 2.5781 2.4883 4.25 1.8203 1.668-.66797 2.4844-2.5781 1.8203-4.25zm15.035 15.273 1.7656-1.2734-5.5156-7.6484 1.7695-1.2734 4.5977 6.3789c.3164.42969.84765.76953 1.2969.99219l1.8164-1.3125c-.54688-.25781-1-.47656-1.3398-.95312l-4.1055-5.6875c-.75782-1.0508-1.375-1.1524-1.9219-1.0078.25391-.55078.39063-1.1172-.19531-1.9297l-3.8945-5.3984c-.70703-.98047-2.0625-1.1992-3.043-.4961l-3.5352 2.5508zm-9.2617-16.562 1.7656-1.2773 4.2422 5.875-1.7695 1.2773zm18.023 4.168c1.4102 1.1133 3.4766.86328 4.5898-.54688 1.1094-1.4102.86328-3.4805-.54687-4.5938l-6.6875-5.2617-1.9336 2.4531 1.7109 1.3516.58594-.74219 5.6914 4.4805-1.3477 1.7109-13.102-10.309 1.3516-1.7109 2.5898 2.0391 1.3477-1.7148-1.8711-1.4766c-1.4141-1.1094-3.4805-.85938-4.5938.55078-1.1094 1.4102-.86329 3.4766.54687 4.5898zm-68.086-13.008c.58203 1.1953.26953 2.8086-.625 3.75l-2.293 1.8476-1.3398-1.7305c.8125-.7539 1.7617-1.3906 2.6289-2.1133l-1.3086-1.7344-5.7812 4.4414c.6875 1.2539 2.2031 2.2734 1.6211 3.8789l-.11719.54687-6.1758 4.7617c-.80469.44922-1.9062.48438-2.7773.13282-1.0352-.40235-1.8359-1.4648-2.0078-2.5117-.19531-1.2422.24219-2.4141 1.1953-3.2461.64063-.50781 1.3086-.98828 1.9531-1.5234.48437.55859.91016 1.1719 1.3359 1.7852-.83984.69922-1.7305 1.3398-2.5977 2.0352l1.2812 1.7578c1.9297-1.418 3.8555-2.9688 5.8125-4.4688-.80078-1.3086-2.5312-2.6055-1.4531-4.2891l.48047-.5625 5.6133-4.2812c.89062-.55859 2.2617-.5 3.1602.0117.57031.33984 1.1328.93359 1.3945 1.5117" fill="#071c3a" fill-rule="evenodd"/><g fill="#e31147"><path d="m70.152 103.87c-.0078.0234-.08203.23438-.08203.23438-.0039.0156-.07031.23437-.07031.23437-.07813.21485-.20312.33204-.38672.375-.10938.0312-.21484.0156-.29688-.0469-.08203-.0625-.13281-.16016-.13281-.27344 0-.004-.01563-.24219-.01563-.24219l-.08203-.83593c-.06641-.38672-.17969-.6836-.35938-.9336-.0078-.008-.36719-.42578-.36719-.42578-.01172-.0156-.41406-.46875-.41406-.46875-.31641-.32031-.60547-.47265-.90234-.48047-.23047.0703-.44141.22657-.66797.47266l-.28516.35156-.25391.34375c-.09375.15625-.30078.0664-.30078.0664s-.01953-.0117-.03906-.0195c-.0039-.0195-.01563-.0391-.01563-.0391-.0625-.16015-.08594-.32031-.08594-.46484 0-.26172.07813-.49219.15625-.68359l.21875-.44922.25391-.53516.03125-.0508c.07812-.07031.15234-.20312.23437-.42188l.06641-.18359.14844-.37891c.22266-.48047.55859-.60938 1.0469-.40234.37891.20312.61328.52734.78906.8125l.12109.19922.15625.25391.31641.41015c.875.98047 1.2969 1.9024 1.2969 2.8594 0 .23828-.02344.48047-.07813.72265zm-3.3164 7.3789s-.01172.008-.0078.0156c-.0039-.004-.02344.004-.02344.004-.50391.15625-1.0742.22266-1.6914.19141l-.03125-.008-.11328-.0469c-.0039-.004-.12109-.0781-.12109-.0781-.05859-.0469-.14844-.14844-.09766-.30469.23438-.70313.92969-1.5117 1.8086-1.6953h.07813.125l.19531.0273c.09375.0273.25781.10547.30078.33594.01172.1289.02344.27343.02344.42187 0 .41797-.08594.86719-.44531 1.1367zm-10.32-17.855c-.03516-.01172-.06641-.01953-.06641-.01953s-.0039.01172-.0078.02734c-.01172.0078-.01953.01953-.01953.01953-.07813.07422-.21484.12891-.35156.03906 0 0-.01953-.01172-.03516-.02344-.0039-.02344-.0078-.04687-.0078-.04687-.21094-1.0781-.45312-2.2227-.89062-3.2812l-.25-.42969-.09766-.13672-.21484-.3125c-.17188-.27344-.33594-.64062-.10938-1.0781l.02734-.03516c.19531-.19531.54297-.21484.78125-.125l.03125.01562c.46094.32031.76172.84766.97656 1.2305.27344.63672.41406 1.4375.41406 2.2617 0 .62891-.08203 1.2734-.24609 1.875 0 0 .03125.0078.06641.01953zm21.254 19.074c-1.625-.94922-2.2734-2.7344-3.2773-4.1445-.34766-.51563-.97266-.84375-1.2969-1.3555-1.1641-3.168-2.168-6.3359-2.4648-9.9648-.24609-.89453-.43359-1.8164-.92188-2.6562-1.4609-2.3828-3.3555-4.5508-5.1992-6.7422-.16016-.16406-.16406-.17578-.51562-.51562l-6.4141-5.332c-.78516-.59766-1.6836-.97656-2.5742-1.3828-1.3555-.51562-3.1953-.40625-4.5195.16406-1.3828.73047-2.6289 1.7852-4.0938 2.2734-2.1094.94922-4.4922 1.1367-6.3086 2.7617-1.0547.92188-1.9492 2.3555-3.5195 2.1133-1.7617-.08203-3.332.56641-4.6562 1.6523-1.1914 1.082-2.3281 2.3555-3.875 2.6523-1.3516.57031-3.0039.29687-4.3867.8125-2.1914.54297-3.9258 2.2734-5.793 3.6016-1.8672 1.082-3.6562 2.2461-5.9844 2.1914-1.5156-.10547-2.9805-1.1641-3.4688-2.625-.45703-1.6797.054688-3.4102 1.3828-4.5469 1.3828-1.6523 3.5742-2.6289 4.6562-4.5234.57031-1.0039.48828-2.6289-.26953-3.5742-1.4336-1.4883-3.4922-1.543-5.3633-2.0039-1.1875-.32812-2.1094-1.2461-3.168-1.8125-.40625.62109-.53906 1.2969-.48438 2.0547.21484 1.707 1.5156 3.25 3.1406 3.8438.94531.40625 2.0312.10938 3.0039.32812.26953.10547.54297.37891.57031.67578-.05469.26953-.08203.54297-.32422.73047-1.5195 1.2734-3.1133 2.4922-4.3867 4.0625-1.3555 1.4609-1.5195 4.0352-.8125 5.875.78516 2.1133 2.9766 3.4961 5.0898 3.7656 1.543.24609 2.9258-.16016 4.332-.46094.19141 0 .26953.19141.35156.30078.13672 1.2422-.05469 2.3555.21875 3.4922.24219 1.0547.59375 1.7891.97266 2.8164.05469.35157 0 .73047-.24219 1-.78516.59766-1.5977 1.0039-2.4648 1.3828l-2.1133.13672-.40625.1914c-.78516.91797-.8125 1.8672-1.2969 2.8945-.65234 1.0859-1.8438 1.5977-2.8438 2.2227-.32422.51172-.67969 1.0547-1.1367 1.4609-.35547.32422-.78906.40625-1.2461.46093-.73438.83985-.89453 2.0039-1.0859 3.1406 1.1914.10937 2.4375.75781 3.6016.10937 1.0039-.46093 1.2188-1.6797 1.9805-2.4102.59375-.64844 1.4883-.16406 2.1914-.0273 1.0547.0547 1.8125-.70312 2.707-1.0586.62109-.40234 1.1367-1.1055 1.7891-1.5156 1.2461-.59375 2.9766-.26954 4.2773-.0273 1.0273.27344 2.1133.10938 3.0078-.29687.83594-.51172 1.6211-1.1641 2.5703-1.3789.83984-.43359 1.2461-1.3828 1.5977-2.168.26953-.73047.97656-1.3008.92188-2.1406-.21875-.1875-.46094-.59766-.78516-.57032-.40625.57032-.70703 1.168-1.1641 1.7109-1.9609 2.668-3.5 2.9219-7.4766 2.9219-2.9492-.10547-5.6055.78515-7.6367 3.0859-.13281.082-.32422.0273-.43359-.0781-.07813-.32422.19141-.86328.32422-1.1094 1.8164-2.5703 4.6328-3.1641 7.6094-3.2226 1.625-.10547 3.1719-.37891 4.5508-1.082 1.543-.78516 2.6016-2.0078 3.25-3.5234.35156-1.707.48828-3.5469.92188-5.1758.05469-.16016.45703-.28125.59375-.22656.16016.0273.48438.17187.48438.36328-.29688 1.6797-.83594 3.6562-.18359 5.2812 1.2969 1.707 3.707.78515 5.4688.70312 1.8438-.16015 3.3203-.0195 5.082.0898.86719-.0273 1.5078.18359 2.1836-.35547.1875-.30078.26563-.70313.21094-1.0274-.05469-.48828-.46094-.78125 0-1.1875.13281-.10937.53906-.0391.64453.0977.24609.67969.35547 1.4062.78906 2.0039.86719 1.1133 2.1367 1.9766 3.3281 2.6016 1.1367.78515 2.0859 1.8945 2.168 3.2773 0 .70313-.65234 1.1914-1.1914 1.5156-.92188.46093-1.9258.83984-3.0078.73437-1.4336-.70703-1.8125-2.2226-2.7617-3.332-.48438-.54297-1.2188-.65234-1.9492-.59766-.78516.082-1.5703.10938-2.2734.35547-.19141.16016-.24609.40235-.21875.64844.48828.89453 1.0312 1.7578 1.5703 2.6523.625.37891 1.4922-.21484 2.0312.46094.46094.70313.75781 1.543 1.4648 2.0859.67578.59375 1.707.86328 2.5977.48828 2.0039-.625 4.0078-1.2773 5.875-2.2773h.625c.75781-.082 1.5977-.0273 2.1406-.59375.59375-.86719 1.082-1.6797 1.543-2.6016.45703-.62109.24219-1.5703.05469-2.2461-.92188-1.1367-1.4375-2.4102-1.9258-3.7148-.45703-.13282-.86328-.40235-1.3789-.37891-.24219.10938-.59766.0547-.73438.32422l2.1406 4.2304c.13672.32031.30078.78125.21875 1.2188-.30078.89062-.75781 1.7578-1.4922 2.4102-.13281.0781-.29687.16016-.40234-.0273.24219-.92187.67578-1.9258.62109-2.9805l-2.0859-3.7656c-.24219-.51563-.67578-.97657-.64844-1.5742 0-.26953.24219-.45703.46094-.56641.91797-.29687 2.0312-.24219 2.7344-.97265.92188-1.4375 1.1133-2.8438 1.3555-4.5508.05469-.10937.27344-.3164.43359-.3164.16406-.0547.34766.17969.42969.26172.27344 1.8672-.10938 3.7617-1.1914 5.2266-.05469.19141-.13281.43359.08203.56641 1.0273.32812 2.1133 0 2.9805-.45704 1.1094.0273 2.1367-.24609 3.1406-.40625.10547.0547.21484.16016.21484.26954-.67578.75781-1.0547 1.5976-1.2461 2.5742-.8125.83985-1.9766 1.5703-2.0586 2.7891.13672.59765.65234.0273 1.0039.082.16406.0273.26953.16015.26953.32422l-.8125 1.1914c-.43359.70703.08203 1.5156.08203 2.1953.19141.53906.83984.8125 1.4062.8125 1.2227-.0547 2.3047-.51563 3.3867-.89454 1.1914-.51562 2.6797-.48828 3.9805-.27343 1.2734-.0781 2.2227-.91797 3.168-1.7578.51562 0 .97656.35157 1.3281.73047 1.4609 1.5703 3.3594 2.2461 5.4961 2.1953l.19141-.10939c.13281-.13672.07813-.37891-.08203-.48828l-1.2734-.64844c-.89453-.57031-2.0039-1.3281-2.3008-2.3281-.27344-.89453-.75781-1.8711-1.3008-2.7344-.1875-.4375-.62109-.78906-.8125-1.2226.05469-.0547.10938-.13672.19141-.10938 1.4062.48828 2.2461 1.8711 2.8945 3.1172 1.0312 1.4375 2.5195 2.6523 4.4688 2.3281l.16406-.13281c.08203-.10937.05469-.24609 0-.32812l-.97656-.48438"/><path d="m5.875 115.47c.83984-.48828 1.3828-1.4062 1.8164-2.1914-.082031-.30078-.38281-.51562-.625-.73437-.16016-.13282-.40625-.0234-.59766.0273-.59375.51562-1.2148.92187-1.8672 1.3281-.26953.19141-.16016.59766-.21484.89454 0 .26953.32422.46093.48828.62109.29688.13672.67578.16406 1 .0547"/><path d="m3.0312 115.55c-.43359.21484-.89453.625-1 1.1094-.13672.86719.054688 1.6797-.625 2.3047-.027344.16016-.1875.34766-.027344.51172.59766.19141 1.1641.43359 1.8945.51562.32812-1.0586.57031-2.2226.94922-3.1406v-.27344c-.32422-.40234-.64844-.92187-1.1914-1.0273"/><path d="m44.109 112.68c.54297.59766.51562 1.5156 1.1406 1.9766.80859.13672 1.5391-.1875 2.1641-.67578.35547-.29688-.16016-.67579-.21484-1.0312-.35156-.51172-.10938-1.543-.97656-1.5703-.86719.13672-1.7305.16407-2.5977.16407l-.24609.16015c-.16016.51953.59375.51953.73047.97656"/><path d="m163.69 118.34c-.13281-.62109.0273-1.4883-.37891-2.0586-.35156-.26953-.67578-.67578-1.1367-.56641-.3789.32422-.94921.70313-.86718 1.2695.32422.97656.54297 1.6797.73047 2.6836.10937.1875 0 .5664.30078.5664l1.7305-.5664c.30078-.48829-.26954-.86719-.37891-1.3281"/><path d="m113.98 86.984-.11719.22656-.125.20312c-.004 0-.85547.79297-.85547.79297l-.91406.85547c-.6875.66797-1.168 1.2305-1.5156 1.7734-.28907.39844-.50782.86328-.72266 1.3125-.0625.13281-.22656.13672-.31641.10547 0 0-.0234-.0078-.0508-.01563-.008-.02344-.0156-.05078-.0156-.05078-.0586-.17188-.0859-.35156-.0859-.55078 0-.15234.0156-.3125.0508-.48828l.16797-.67578.082-.30469c.52344-1.3789 1.6836-2.8242 3.1875-3.9492.19141-.125.55078-.21094.82422-.125.16797.05078.28516.16016.35547.32031.0625.11328.0977.22266.0977.33594 0 .07422-.0156.15234-.0469.23438 0 0 .0352.01172.0664.02344-.0312-.01172-.0664-.02344-.0664-.02344zm-11.047 15.398-.0742.25782c-.0625.0898-.14063.1914-.2461.2539-.082.0508-.21484.0937-.35547.004-.14453-.0586-.2539-.14844-.35156-.27735-.004 0-.11719-.17578-.11719-.17578l-.0977-.17187c-.1211-.21094-.23828-.36719-.51953-.34375-.25391-.0156-.4375.0898-.59766.19922l-.17578.13281-.10156.0742-.28516.1914c-.0117.008-.38672.33204-.38672.33204l-.16793.14055-.54688.50781c-.39453.41016-.60938.78516-.67578 1.1758l-.07422.28516-.02344.125-.03516.17188c-.03516.1875-.10547.39843-.29687.51953-.12891.0352-.28906.0117-.41016-.0781-.10156-.0742-.15625-.17578-.15625-.28125-.10938-1.3086.34766-2.5312 1.2578-3.3594.46094-.37891.84766-.83594 1.168-1.2305 0 0 .35546-.44922.35546-.44922l.71094-.88281.082-.03906c.51563-.10156.83594.35938.94922.56249.44922.57813.8125 1.2305 1.1523 2.0547.0195.0586.0273.1211.0273.1875 0 .0352-.004.0742-.008.11328zm-.62109 9.375-.0156.0352c-.17969.12109-.39844.17578-.70313.16016l-.51562-.0586-.17188-.0273-.0391-.0117c-.51953-.28906-.64453-.87891-.70313-1.4727 0-.19922.0664-.35547.19922-.46093 0 0 .0156-.0156.0312-.0234h.0352c.71484 0 1.2539.21094 1.5976.63281l.0195.0312.10546.20703.16016.33594s.0352-.0117.0664-.0234c-.0312.0117-.0664.0234-.0664.0234.0508.125.0742.24219.0742.34766 0 .10546-.0234.20703-.0742.30468zm57.695 5.1797c-1.3828.0781-2.0625-1.4102-2.8711-2.2773-.67969-.78516-2.0039-1.2461-1.9766-2.4102-.2461-.46094-.30079-1.1914-.51563-1.7891-.19141-.48438-.37891-1.1875-1.0312-1.2969-1.1641-.1914-2.5703.13672-3.3008-.94922-.75781-.8125.0781-1.7617.21484-2.5469.32422-1.0039.35157-2.3281.19141-3.3594-.0273-.59375-.43359-1.082-.32813-1.6758.27344-.51562.92188-.13672 1.3281-.082 1.5156.4336 3.3047.21875 4.6836-.3789 1.8984-.92188 3.4141-2.8438 3.332-5.0391-.26953-2.8438-2.3008-5.1719-4.4961-7.0117-.40234-.35156-.91797-.73438-1.0547-1.2461-.0547-1.1094 1.1914-.57031 1.8125-.83984.76172-.19141 1.5195-.37891 2.1406-.8125 1.6523-1.1094 2.0039-3.0586 1.6797-4.9531-.0547-.16406-.0547-.41016-.29688-.41016-.30078.24609-.59766.59766-.97656.8125-1.0547.625-2.4648.51562-3.5742 1.0586-1.3828.59375-3.0859 1.4336-3.6836 3.0039-.16407.78516.0273 1.5977.3789 2.25 1.6797 2.6523 5.2266 4.3867 5.7969 7.582.21484 1.2969-.4336 2.2461-1.4375 2.9766-1.5156.92188-3.7891.59766-5.3047-.21484-2.9258-1.4648-5.4727-3.9023-8.6133-4.9023-1.9766-.89453-4.4141-.67578-6.1719-2.0586-1.3281-.86719-2.5469-2.0039-4.0352-2.3828-1.0312-.35156-2.1953-.29688-3.1406-.8125-.97656-.86719-2.0039-1.6797-3.1445-2.2461-1.5664-.78906-3.3008-1.1914-5.0352-1.5703-1.0274-.24609-1.4062-1.3828-2.2461-1.9531-1.4375-1.1328-3.0352-1.9492-4.9844-1.7852-.8125.05469-1.4336.59375-2.0586 1.1367-4.1406 3.6289-8.8828 6.1211-12.672 10.262-2.5469 2.6289-3.2227 5.9609-4.1719 9.1836-1.3516 4.8711-1.9219 10.238-6.8242 13.242-.08203.13672-.08203.3789.08203.48828 1.3008.32422 2.5742-.19141 3.4414-1.082.83594-1.3281 1.7344-2.6016 2.8672-3.8203l.27344-.13281c.13281.0234.29688.10547.24219.29688-.32422 1.082-1.3008 1.8672-1.625 2.9531-.43359 1.2969-1.6797 2.2969-2.7344 3.2188l-.02734.16406c0 .13282.13672.27344.26953.29688 2.3828.10937 4.0898-1.5977 5.6875-3.1953.16406-.16016.37891-.13282.59766-.082.70313.54296 1.3516 1.3555 2.2734 1.5469.97656-.13672 2.0039-.27344 3.0352-.19141 1.4336.4336 2.8125 1.0312 4.25 1.5156.73047-.0234 1.2695-.73047 1.6523-1.3242.29688-.70312-.13672-1.4102-.082-2.0859.35156-.21875.75781.0547 1.1367-.0547.16015-.10938.29687-.30079.29687-.48829-.26953-1.2422-1.3789-2.1641-1.7344-3.332-.53906-1.4883-2.3008-2.3828-2.625-3.9805.082-.10937.21484-.26953.35547-.16406 1.1602.83985 2.1914 1.9492 3.625 2.168 1.0859.10938 2.1953.21484 3.2773.13281.16406-.0547.29688-.24218.24219-.42968-.45703-.97657-.89063-1.9531-1.1641-3.0078-.37891-1.3281-.64844-3.168-.21485-4.6289.082-.10938.4336-.32031.59375-.26562.21875.05469.48438.31641.51172.50781.16406 2.3047-.0742 4.4141 1.3047 6.2266.59375.94922 1.625 1.1367 2.3555 1.8711.27343.37891.32422 1 .13672 1.4336l-1.6524 2.4414c-.3789.54297-.75781 1.1367-.89453 1.7305-.13672.67969-.0547 1.3281 0 1.9805-.10937.0508-.16016-.10938-.26953-.16406-.43359-.89454-.92188-2.0312-.46094-3.0859l2.082-3.2266.0859-.24219c-.46094-.2461-.97656-.48828-1.4648-.59766-.24219.10938-.40625.35156-.57032.57031l-2.0273 3.6836c-.13672.43359-.27344.75781-.16406 1.2188.10937.54297.24219 1.0859.48828 1.543.16016.75781.29687 1.2734.64844 1.9531.51562.56641 1.2188.0508 1.8711.21485.64844.16406.89063.94531 1.543 1.1367 1.4609.48829 3.0312.75782 4.4922 1.3281.76172.24219 1.8438.53906 2.5195-.082.94922-.51563 1.1914-1.5156 1.3555-2.4648.29687-.40625.89062-.24218 1.3242-.3789.8164-.54297 1.082-1.5156 1.6797-2.2461l.10938-.3789c-.082-.2461-.29688-.38281-.51563-.46094h-2.7617c-1.2734.16016-1.3789 1.5703-1.9219 2.4375-.30078.53906-.89453.75391-1.5156.70313-1.3008-.35157-2.8984-.54297-3.4961-1.9492-.082-.35157-.082-.78516.19141-1.0312.67578-.78516 1.4883-1.6797 2.3281-2.3281 1.1914-.24219 2.3555-1.1367 2.9805-2.1953.32422-.46094.26953-1.1367.8125-1.4883.16016-.0312.52344-.0391.63281.12109.2461.78516-.19922 1.3477-.4414 2.0274 2.9531.29687 5.2422-.55469 8.1094-.44922 1.2188 0 2.3125.14062 3.5039.0586 1.1914-.0508 2.4922-.54297 2.8711-1.7891.54297-1.5938-.21094-3.4102-.48437-4.9258l.32812-.25782c.19141-.10937.50781.0391.64453.14844.51172 1.4336.86328 3.1719 1.082 4.7383.21875 1.3828.8125 2.2812 1.5703 3.4453 1.3789 2.0586 3.8203 2.8711 6.2305 2.3555 2.9219-.21484 5.4414 1.3242 7.2266 3.6016v.13281c-.0547.10937-.16016.24609-.29688.21875-1.543-1.1914-3.0859-2.4648-5.0625-2.7109-2-.36328-3.793.67969-5.8789-.16015-2.5117-.82813-3.5664-2.375-4.6289-4.8477h-.21875c-.16016.0273-.26563.1875-.29688.35156l.27344 1.6797c.32422 1.3516.75781 2.9531 2.2188 3.5742 1.1367.67578 2.25 1.6523 3.6562 1.2734 2.4648-.54297 4.957.16015 6.8516 1.543.6211.35157 1.1094 1 1.7852 1.2461.73438.29687 1.625.13281 2.2227-.35156 1.3789-.46094 1.707 1.2695 2.6523 1.8945.83984.8125 2.5156.47656 3.6289.47656l-.0273-.125c-.13281-1.1094-.43359-1.9766-.86328-2.9492"/><path d="m120.82 111.87c-.73047.13672-1.5703-.0273-2.3008.082-.32422.48828-.62109 1.082-.53906 1.7344.0781.67578.83594.73047 1.3242.91797.46094.0547 1.1367.21875 1.3828-.26953.26953-.70313.51172-1.4609.62109-2.2227-.0508-.21484-.26953-.29687-.48828-.24219"/><path d="m159.3 112.71c-.53906-.46094-1.1094.21875-1.3789.62109.1875.65235.73047 1.1914 1.1367 1.7891.21485.32422.56641.53907.94922.57032.375 0 .67578-.19141.94531-.41016.19141-.24219.40625-.53906.32422-.89062-.51172-.70313-1.3281-1.1406-1.9766-1.6797"/></g><path d="m100.35 12.191h-12.574l-4.0586-12.191-4.0586 12.191h-12.57l10.309 7.2344-3.8398 12.043 10.16-7.4102 10.16 7.4102-3.8398-12.043 10.313-7.2344" fill="#fff"/><g fill="#fad105"><path d="m83.715 22.359 7.5742 5.5273-2.8672-9.0078 7.5781-5.3164h-9.2188l-3.0664-9.2148-3.0664 9.2148h-9.2188l7.5781 5.3164-2.8672 9.0078 7.5742-5.5273"/><path d="m83.715 22.359 7.5742 5.5273-2.8672-9.0078 7.5781-5.3164h-9.2188l-3.0664-9.2148-3.0664 9.2148h-9.2188l7.5781 5.3164-2.8672 9.0078 7.5742-5.5273"/></g></g></svg>