<?xml version="1.0" encoding="utf-8"?>
<!-- Generator: Adobe Illustrator 15.0.0, SVG Export Plug-In . SVG Version: 6.00 Build 0)  -->
<!DOCTYPE svg PUBLIC "-//W3C//DTD SVG 1.1//EN" "http://www.w3.org/Graphics/SVG/1.1/DTD/svg11.dtd">
<svg version="1.1" id="Layer_1" xmlns="http://www.w3.org/2000/svg" xmlns:xlink="http://www.w3.org/1999/xlink" x="0px" y="0px"
	 width="243.03234752" height="411.467860227" viewBox="-215.809 -369.404 500 846.529" enable-background="new -215.809 -369.404 500 846.529"
	 xml:space="preserve">
<path fill="#FFFFFF" d="M29.411-247.882c-94.41,64.268-111.944,64.268-225.955,64.268h-8.732l-0.078,56.929
	c-0.836,188.315-1.706,383.046,235.712,498.52l3.789,1.837l3.804-1.82C277.36,257.361,275.368,63.27,273.458-124.422l-0.41-59.139
	l-8.667-0.053c-105.176,0-118.696,0-225.545-64.514l-4.801-2.895L29.411-247.882z"/>
<path fill="#162577" d="M29.222-259.809c-98.046,66.744-116.257,66.744-234.671,66.744h-9.069l-0.082,59.127
	c-0.865,195.584-1.763,397.825,244.81,517.752l3.94,1.902l3.948-1.886C286.741,264.921,284.675,63.352,282.69-131.588l-0.427-61.418
	l-9.003-0.058c-109.234,0-123.271,0-234.244-67.002l-4.985-3.005L29.222-259.809z M34.593-241.557
	c107.672,64.703,127.99,66.577,229.657,66.625c0.09,12.427,0.278,43.536,0.278,43.536c0.172,17.17,0.36,34.458,0.36,51.772
	c0,78.498-3.648,157.333-27.542,228.152c-32.535,96.337-97.197,165.36-203.139,216.969
	C-70.89,313.446-135.22,244.013-167.957,147.209c-25.837-76.429-28.6-162.073-28.6-246.598c0-11.528,0.041-23.02,0.111-34.467
	c0,0,0.033-28.866,0.049-41.076C-85.674-174.98-61.334-176.719,34.593-241.557z"/>
<path fill="#162577" d="M140.822-101.664c-1.928-3.575-2.739-10.048-2.616-19.277c0.14-7.572,0.96-12.947,2.477-16.256
	c2.222-4.264,5.092-6.063,8.945-5.231c1.656,0.279,3.165,0.968,4.543,2.345c1.246,1.234,2.477,2.886,3.32,4.953
	c0.55,1.099,0.968,3.03,1.518,5.506l14.882-2.62c-1.813-8.261-4.559-14.743-8.413-19.421c-3.854-4.817-9.085-8.125-15.973-9.773
	c-8.683-2.071-15.439,0-20.244,6.478c-4.978,6.748-7.576,17.49-7.863,31.954c-0.14,11.024,1.238,19.974,3.993,27.136
	c2.624,7.023,5.797,11.992,9.511,14.739c3.715,2.628,8.544,4.001,14.48,4.001c4.806,0,8.807-1.099,11.972-3.03
	c3.165-2.075,5.789-4.961,7.855-8.823c2.066-3.846,3.723-8.675,4.698-14.325l-14.611-7.572c-0.689,4.953-2.059,8.679-3.575,11.299
	c-1.656,2.477-4.133,3.71-7.314,3.579C145.086-96.281,142.609-98.077,140.822-101.664z M217.955-78.381h17.498L216.028-148.5
	l-18.334-1.107l-21.204,71.09h17.088l2.607-11.836l9.643,0.135l9.511,0.266L217.955-78.381z M-141.148-104.55
	c6.609-0.271,11.705-2.468,15.005-6.752c1.382-1.923,2.493-3.997,3.317-6.465c1.107-3.173,1.652-6.9,1.652-11.024
	c0-4.264-0.427-7.38-1.529-10.278c-0.689-2.062-1.644-3.71-2.895-5.096c-3.026-3.439-7.441-4.686-13.636-4.272l-4.542,0.144
	l-23.418,0.627v69.286h16.809v-25.894l6.473-0.275H-141.148z M-83.021-78.648h17.625l-19.572-76.961l-18.859,1.747l-19.01,69.565
	l-1.517,5.772h1.517h15.567l2.628-12.397l9.499-0.415l9.511-0.274L-83.021-78.648z M-15.523-92.284
	c2.21-5.096,3.862-11.438,4.821-19.154l-14.739-6.203c-0.688,6.063-1.931,10.745-3.591,14.054c-1.513,3.165-3.989,4.957-7.297,5.088
	c-3.309,0.279-5.785-1.377-7.572-4.96c-1.923-3.444-2.755-10.053-2.612-19.831c0-7.994,0.82-13.915,2.325-17.912
	c2.066-5.506,4.973-8.814,8.827-9.782c1.652-0.41,3.165-0.139,4.542,0.697c1.374,0.832,2.484,2.337,3.44,4.268
	c0.553,1.234,0.967,3.317,1.529,6.06l14.87-9.093c-1.795-9.921-4.694-16.944-8.548-20.806c-3.854-3.71-9.237-4.407-16.121-2.206
	c-8.675,2.763-15.423,8.679-20.388,17.498c-4.682,8.671-7.293,19.831-7.293,33.745c-0.143,10.327,1.234,18.875,3.993,25.349
	c2.612,6.748,5.92,11.434,9.635,14.189c3.718,2.62,8.544,4.128,14.472,4.128c4.813,0,8.818-1.242,11.848-3.71
	C-20.209-83.478-17.598-87.188-15.523-92.284z M49.077-79.07l0.828-105.651l-16.948-1.374l-0.275,37.464l-18.17,1.099l0.274-36.775
	l-16.817,3.71L-2.576-78.943l16.674-0.135l0.135-42.568l18.187-0.688l-0.144,43.249h16.801V-79.07z M112.173-115.3l0.836-53.854
	l-16.678-4.137l-0.82,57.581c0,5.231-0.836,9.372-2.476,11.988c-1.656,2.891-3.87,4.133-6.757,3.998
	c-3.033-0.275-5.231-1.931-6.888-5.096c-1.509-3.03-2.476-7.437-2.345-12.812l0.836-60.607l-16.809-4.272l-0.688,61.714
	c-0.14,5.096,0.409,11.024,1.517,17.633c0.549,4.128,1.648,8.126,3.452,11.979c1.64,3.854,3.706,6.752,5.772,8.827
	c2.066,2.198,4.689,3.432,7.854,4.129c3.034,0.688,5.921,1.099,8.553,1.099c4.542,0,8.552-1.099,11.717-3.173
	c2.32-1.369,4.543-3.985,6.748-7.564c2.059-3.596,3.715-7.581,4.683-12.41C111.615-104.964,112.173-109.925,112.173-115.3z
	 M246.407-161.086l0.705,93.729h-426.003l-0.127-94.156c105.536,0,124.662,0.427,213.487-60.152
	C134.812-161.086,149.579-161.086,246.407-161.086z M205.836-128.927l0.558-2.075l5.379,25.771l-5.937-0.279l-5.912-0.283
	L205.836-128.927z M-143.912-134.298c2.202,0,3.854,0.689,4.694,1.931c1.226,1.365,1.636,3.309,1.636,5.498
	c0,2.202-0.545,4.133-1.922,5.642c-0.956,1.246-2.468,1.931-4.399,2.345c-0.84,0.143-1.521,0.143-2.341,0.274l-4.133,0.144v-15.567
	l4.822-0.274C-145.01-134.298-144.465-134.442-143.912-134.298z M-95.153-135.266l6.068,26.862l-6.068,0.553l-5.92,0.41
	L-95.153-135.266z"/>
<path fill="#162577" d="M112.066,240.602l-4.371-2.771l-2.632-35.733l-2.14-3.461l-2.329-54.888l-22.286-10.922l2.624-1.017
	c0,0,15.07,8.036,19.892,9.635c2.042-3.214,2.624-5.83,5.265-7.445c1.164-2.206-3.223-8.061-3.223-8.061l-8.044-19.301l-3.969,0.812
	l-2.91-24.328v-3.805c6.871-32.618,8.052-17.694-1.6-46.36l-27.337-6.441V15.692l1.591-1.025c0.574,0.59,5.854,4.83,5.854,5.854
	l-1.033,0.586c0,2.193,4.256,4.231,5.428,5.846h3.657c1.607-1.607,3.214-3.21,3.805-3.653c1.607,1.603,1.607,1.021,1.607,2.046
	c0.582,0-2.206,3.218-1.607,3.218l3.788-0.439c1.033-1.172,4.247-4.825,1.033-7.597c-1.033-4.243-4.821-5.854-5.42-9.077
	l-4.239-3.796V-3.015L72.446-4.04v-2.198l-4.821-4.223c-2.206,0,0,0-4.83,1.603c0,0.586,0,0.586,0,0.586
	c-0.574,0-1.607,0.438-1.607,0c0-0.586-0.582-1.177,0-2.78c-0.582-1.603-3.788-4.239-4.821-5.272l-2.787,2.058
	c-0.435-1.025-1.607-2.05-2.042-1.025l-2.197,2.636c-1.6,0-1.6-4.826-1.6-5.851c0-0.59-1.033-0.59-1.033-0.59v2.78l-2.771,5.272
	h-0.451c-4.813-4.239-5.83-6.875-11.836-6.437l-3.653,3.214l-1.025-1.025c-1.603,4.239-5.264,4.239-3.227,7.458
	c0,1.603,0,3.206-1.021,4.383c-1.607,0.442-1.017,0-2.185-1.177c-0.451,1.177-1.033,1.611-2.644,2.788
	c0-0.586-0.578-1.168-1.025-1.168l-3.214,1.603c0,0,0,0-0.574,0c-1.611,1.177-2.636,1.624-3.8,2.636L8.834,6.053
	c-2.78,0-1.603,0-1.603,0.586c0,1.603-2.202,0.582-2.202,0.582S4.451,5.028,3.426,6.64c0,1.603,0,3.805,1.603,3.805
	c3.218,1.603,4.83,2.628,5.416,4.239c0,1.025-0.578,4.83-0.578,7.458l-4.83,3.214c0,1.168-1.013,1.168-1.013,1.168
	c0,1.033,2.038,2.636,2.038,2.636c0,1.025,0,1.025-1.025,1.611c-1.013,0-1.603-0.586-2.189-0.586c-0.438,0-1.603,0.586-1.603,1.603
	c0,1.611,0,4.239,0,7.458c0-3.218-0.438,3.669-1.472,3.669l-3.792,2.181l1.025,7.458l1.173,1.611
	c1.595,1.017,0.438,4.817,0.438,4.817l-5.494,56.413l-5.194,0.328c0,0,0,0-1.033,0c1.033,1.615,1.033,3.805,1.033,4.837
	c-0.59,0-1.603,0-1.603,0.566l-1.607,1.033c0,1.164,0,1.164-1.033,1.164l-1.165,4.682l-3.218,2.198v4.821l7.105,5.739l-1.689,29.649
	l-1.033,1.033l-1.165,25.14l-3.218,3.215l-0.443,8.052v0.574l-1.168,16.53l-1.025,10.823l-3.792,3.657v11.84l82.934,4.903
	l56.241-5.511L112.066,240.602z M103.588,213.264l-0.451,1.755l-21.188-2.197l0.304,6.429h-4.387l1.164-8.479L103.588,213.264z
	 M99.349,202.736l-30.994-2.051l1.164-5.706l8.052,1.033l6.863,1.606l0.451,2.477l15.932,0.442L99.349,202.736z M90.87,176.858
	l3.493,5.69l3.37,1.188l0.295,7.003l-4.682-0.435l-4.231-0.582L90.87,176.858z M92.33,193.372l-14.325-0.582l-12.586-0.878
	l3.518-5.116l7.019,3.944l8.331-0.14L92.33,193.372z M64.566,180.352l-0.017-34.373l5.002-11.397l1.705,5.076l0.033,43.047
	L64.566,180.352z M81.752,188.37l-8.945-0.312v-9.758l8.945,1.591V188.37z M79.17,143.502l2.632,5.854l-0.05,27.206l-8.945-1.64
	v-29.289l3.305-1.246L79.17,143.502z M77.71,91.6c0.722,0.877,1.755,1.599,2.493,2.197l-3.953,3.361l-2.05-3.083L77.71,91.6z
	 M83.13,112.36l-9.068,0.147l-7.02-0.147l8.618-5.264C76.39,107.834,82.253,111.622,83.13,112.36z M66.592,75.668l0.746-17.121
	l3.354,1.763l0.295,16.235l0.14,15.628c-1.313,1.181-3.066,1.477-4.821,0.591C66.157,85.598,66.73,85.598,66.592,75.668z
	 M65.132,103.882c0.738,0.738,1.599,1.46,2.493,2.198l-4.092,3.214l-1.911-2.919L65.132,103.882z M59.868,114.394l30.125-0.721
	c0.737,0.877-2.337,3.083-1.46,3.804l-32.904,2.493L59.868,114.394z M-5.934,135.909l-5.112-2.345l46.053-6.002l1.468-0.131
	l-0.291,1.754l-1.898,1.591L-5.934,135.909z M-4.909,138.829l-3.362,0.737c0,0-1.468,1.164-2.046,2.32
	c-0.295,0-2.083-1.008-1.931-1.729c0.139-0.156,3.677-3.346,3.677-3.346L-4.909,138.829z M6.796,115.723l5.649-4.149l7.875,1.845
	l-7.675,7.568L6.796,115.723z M27.996,174.513l0.73-29.387l4.375-3.378l1.755-3.51l3.505,1.328l-0.017,33.159L27.996,174.513z
	 M38.36,175.661v10.905l-11.828,0.82l0.742-9.651L38.36,175.661z M29.168,137.812c0.295-0.442,3.067-5.854,3.94-5.575l0.882,1.623
	l-3.083,5.117L29.168,137.812z M26.09,181.827l-0.144,4.23l-3.366-1.304l-3.51,4.248l-14.333-0.156v-6.297L26.09,181.827z
	 M3.274,144.535l-0.147,11.693l-2.628,0.885l0.443-11.561H1.52l1.168-1.755L3.274,144.535z M0.212,164.264l1.755-3.936l0.873,1.755
	l-0.287,27.632l-3.952,1.755l0.874-26.895L0.212,164.264z M3.865,191.765l17.994-1.902l16.658-1.468l-3.215,2.771l-13.152,1.313
	l-26.046,2.337L3.865,191.765z M40.714,189.272l6.871,0.59l14.037,0.869l-5.264,2.346l-9.225,0.737l-10.963-1.476L40.714,189.272z
	 M39.983,49.117l4.379,1.841v31.77c-1.181,1.328-2.492,1.574-4.379,0.705C39.983,83.235,39.983,49.117,39.983,49.117z M40.009,85.27
	l4.37,1.345v22.089l-4.387,2.616L40.009,85.27z M48.618,109.884c0.722,0.722,7.175,3.937,8.035,4.674l-8.33,4.526l-5.854-5.116
	L48.618,109.884z M44.362,187.813l-4.37-1.246l-0.009-47.295l2.485,0.869l1.91-3.51v51.182H44.362z M46.979,188.059l0.016-45.573
	l6.88-1.755l4.772-14.037l3.41,5.543l0.017,55.986L46.979,188.059z M49.905,21.707l7.33-3.501l-0.032,8.421l-8.167,2.542
	L49.905,21.707z M4.017,31.788c0.435,1.025,0.586,0.881,1.906,0.295l1.747,0.721l5.555-4.821l1.177,0.726l4.821-3.661
	c0.586-0.583-3.218-4.526-3.509-4.821l2.045-1.316l2.923,2.198l2.05,1.459l5.112-3.666c-0.279-0.877-4.526-3.948-5.407-4.964
	c1.308-1.763,2.333-1.763,3.653-3.071v0.147l3.214,3.948l-0.136,1.754l4.678,4.535l2.923-0.144l0.738,0.873
	c-0.443,2.333,5.985,2.05,8.33,1.168c1.033,0,2.051,0,2.788,0.291c-0.599,6.879-9.807,3.805-9.807,9.95
	c-1.312,0.144-6.137-3.374-5.116-5.567l1.906-2.341c0-0.435-7.019-4.535-6.129-3.948C23.63,20.218,15.578,31.333,10.9,35.568
	l1.168,1.176c0,0-1.312,1.603-1.463,1.755l-7.892,0.443c0,0-0.435-5.994-0.435-6.289C2.553,32.091,3.127,31.644,4.017,31.788z
	 M26.524,36.625l-2.046-1.033l2.046-2.923l2.202-0.151C28.279,33.542,26.971,35.592,26.524,36.625z M27.267,42.033
	c-0.295,0.881-1.775,3.214-2.202,4.239l-2.202-1.025l2.202-3.075L27.267,42.033z M29.021,36.625l0.275-0.881l1.328-0.874h0.144
	c0.443,0,0.73,0.152,1.021,0.443l-0.881,1.009c-0.14,0-0.275,0-0.427,0.151c-0.151,0.152-0.295,0.435-0.295,0.586
	c-0.881,0.438-1.017,1.033-1.603,1.747c-0.443-0.144-0.578-0.578-0.738-1.013C27.844,37.195,28.574,37.06,29.021,36.625z
	 M21.99,39.548l-1.451,1.755l-2.341-2.931l0.578-2.337C19.505,36.769,21.26,38.807,21.99,39.548z M7.657,44.813
	c0.734,0.722,1.32,8.63,2.042,9.352L3.57,54.603l-1.603-5.559L7.657,44.813z M0.581,58.269l9.573,3.943l-3.066,40.785l-11.115,4.1
	L0.581,58.269z M-4.138,109.425l12.562-5.092l2.87-41.81c0,0,1.202-1.033,0.759-2.05c2.046-2.492,3.661-4.387,6.002-6.584
	c-1.459-1.168-3.366-2.489-4.973-3.218c0.574-1.468-0.443-5.851,1.456-6.297l9.798,8.773c1.165-0.152,0.291-1.603,0.152-1.906
	l-5.703-4.239l0.586-0.287c0.874,0.152,2.099,1.304,4.014,1.935c2.98,0.988,7.072-0.943,8.13-2.058
	c0.32-0.369,8.684-8.122,9.355-8.659c3.067,1.32,1.165,3.51,2.919,4.83c2.05-0.873,2.493-1.459,4.101-2.345
	c4.682,0.734,4.682,1.755,8.625-0.435l1.6,0.722c0,0.881,0.442,64.055,0.442,64.055l-2.492,1.468
	c-0.435,0.869-1.46,1.599-2.633,1.755c-0.582,0-0.869-0.591-1.172-0.451c-0.582-0.156-0.582,0.451-1.025,0.722l-4.182-2.271V46.887
	l-3.411-3.555l-5.42,3.075l-0.582,16.666c-1.75-0.729-2.488-2.493-3.657-3.805c-1.468-1.32,0.295-3.661-0.881-4.969l-2.042-1.907
	c0.582-1.603,1.898-1.906,2.484-3.501c1.017-0.295,1.607-1.915,0.447-2.202c-1.185,0.287-1.755,1.906-2.78,2.628
	c-0.578,1.025-1.177,1.463-1.747,2.193l0.722,2.493l1.906,1.459l-0.295,2.484l-2.493,0.738l-0.57-0.878l-4.526,3.805
	c-0.152-0.155-2.05-1.615-2.341-1.468c-0.59,0.738-5.854,5.108-6.879,7.314c0,0.435,0.582,0.435,0.873,0.869
	c0.873,0,4.534-3.944,4.989-4.821l1.308,1.181c-2.936,3.066-4.985,6.715-7.9,9.79L13.36,90.714l-0.435,6.592
	c0.435,0.279,1.173,0.591,1.755,0.427c0.873-2.328,0.586-5.396,0.729-8.183c0.586-4.396,1.033-9.069,1.033-13.456l6.715-8.035
	l0.586,0.877c0,0.295-2.628,5.56-2.911,5.707V91.6l-0.168,6.133l0.295,1.033c1.181,0,4.69,0,6.146,1.017l-0.59,2.936
	c-0.152,0.279-0.291,0.427-0.443,0.877h-6.871c-0.147,0.148-0.147,0.287-0.147,0.443c0,0.451,0.443,0.877,1.021,1.173
	c0.75-0.574,1.907-0.574,2.628,0l1.177-0.435l1.763,0.573l-0.168,1.033l-1.324,3.542c0,0-8.228-2.378-9.925-2.943
	c-1.697-0.558-2.436-0.533-3.534,0.246c-0.992,0.771-14.98,11.151-15.854,11.906L-4.138,109.425z M34.72,106.949l-0.729-0.722
	l-2.628-1.181l0.578-1.018c0-0.295-0.291-0.442-0.578-0.59l-1.025,0.295c-0.151,0.147-0.151,0.591-0.151,0.886
	c-0.152-0.295-0.152-0.591-0.578-0.738c0.144,0,0.578-0.155,0.578-0.59c0.151-0.295-0.152-0.574-0.443-0.869
	c-0.144,0-0.279,0-0.447,0l-0.275-2.346c0.275-0.295,1.013,0,1.308-0.442c0.295,0.147,0.295,0.295,0.57,0.442
	c0.742-0.442,3.546-2.099,3.546-2.099l-0.021-26.993l-3.666-4.387l-0.582-1.755l4.822,1.911l-6.577-4.387
	c-0.873,0.295-2.771,2.632-2.484,2.484l-1.611-0.574l3.801-4.395l6.584,3.214l1.459,1.755c0.152,0,0.295,0.295,0.438,0.59
	l0.882,13.891l-0.147,28.354L34.72,106.949z M37.344,109.721l-0.287,3.82L24.77,110.18l3.805-5.125
	C29.296,105.932,36.475,109.146,37.344,109.721z M25.659,85.154v9.659c0,0-2.197,1.312-2.636,1.164l-1.025-19.433
	C23.613,79.898,24.2,81.661,25.659,85.154z M-18.799,130.94l31.294-23.106l30.269,8.773l-4.534,0.279l-26.03-6.429l-31.15,22.951
	L-18.799,130.94z M-18.512,135.024l5.408-1.099l3.247,2.099l-3.526,3.1L-18.512,135.024z M-12.071,145.421l2.628-0.459l5.547-5.149
	l2.64,2.525l-1.033,33.191l-11.737,1.969L-12.071,145.421z M-14.457,180.27l12.074-1.919l-1.066,11.061l-11.545,0.656
	L-14.457,180.27z M-15.306,197.209l0.312-4.419l10.815-1.017l-2.337,4.969l-1.902,3.066l-9.659-0.14L-15.306,197.209z
	 M-6.372,240.158c0,0.738,0.151,0.296,0.151,1.329l-9.068,0.278l-8.925-0.877l-0.291-1.304L-6.372,240.158z M-25.809,249.571v-3.099
	l20.757,0.951l-0.033,3.148L-25.809,249.571z M-4.027,237.683l-14.05-3.362l14.05,0.574C-4.027,235.78-4.027,236.502-4.027,237.683z
	 M-4.466,230.221l-15.518,0.147l2.202-9.512l1.185-10.527l11.836,0.442l1.464,10.233L-4.466,230.221z M0.06,210.477l0.152-5.265
	l4.526,1.181l15.071-0.877l1.168,2.492l-2.771,1.764L0.06,210.477z M36.323,221.3l-1.316,9.216l-16.657,0.738l0.873-12.726
	l3.8-7.904l13.595,1.164L36.323,221.3z M44.33,250.261l-4.403,0.573l0.082-44.097l4.337,1.065v42.458H44.33z M60.745,251.13H47.74
	c-0.59-0.451,0.738-0.451,1.902-0.574h1.313h11.987C62.5,250.687,62.073,250.982,60.745,251.13z M46.568,230.663l1.755-12.135
	l4.075-1.181l-1.165-9.069l11.119,2.346l0.573,10.232l0.738,10.528L46.568,230.663z M24.626,200.096l-30.125,0.738l11.697-5.117
	l20.187-0.886l38.165,0.886l1.181,4.969L24.626,200.096z M73.028,221.742l-0.738,9.635l-5.838,0.295l1.312-7.88l1.173-5.264
	l1.173-7.462l3.361,0.132L73.028,221.742z M82.818,238.272c-0.147,0.427-0.565,0.427-0.722,0.869l-1.902,0.738
	c-0.147,0-0.442,0-0.59,0c-0.296,0-0.443-0.164-0.591-0.442l-1.902-1.313l-0.729-0.877c0.155,0,0.303,0,0.451-0.156
	c0.278,0.156,0.573,0.156,0.721,0l0.878,0.156c0.155-0.296,0.738,0,1.188,0c0.147-0.296,0.583,0,1.018,0
	c0.286-0.296,0.721,0,1.181,0c0-0.156,0.139-0.156,0.442-0.156l0.574,0.591C82.818,237.683,82.818,238.125,82.818,238.272z
	 M109.147,249.375l-23.984,2.033l-0.877-5.698l8.322-0.279l9.963,0.574l7.019,0.155L109.147,249.375z"/>
<path fill="#162577" d="M-125.541,44.805l-0.225-5.166c2.661-2.091,4.575-4.358,5.744-6.793c1.172-2.443,1.685-5.194,1.558-8.277
	c-0.209-4.871-2.198-8.941-5.933-12.226c-3.755-3.268-8.171-4.796-13.259-4.567c-5.125,0.217-9.421,2.132-12.865,5.744
	c-3.452,3.608-5.072,7.835-4.854,12.66c0.135,3.021,0.874,5.703,2.234,8.044c1.361,2.341,3.341,4.366,5.953,6.063l0.209,5.071
	c-3.87-1.865-6.867-4.416-9.015-7.667c-2.148-3.251-3.317-7.035-3.493-11.36c-0.271-6.232,1.697-11.562,5.904-15.998
	c4.206-4.432,9.544-6.789,16.018-7.068c3.05-0.135,5.961,0.32,8.741,1.353c2.771,1.033,5.317,2.62,7.601,4.727
	c2.181,1.997,3.862,4.255,5.026,6.777c1.168,2.509,1.816,5.264,1.943,8.245c0.184,4.321-0.697,8.253-2.648,11.795
	C-118.866,39.696-121.752,42.578-125.541,44.805z"/>
<path fill="#162577" d="M-113.146,52.676l0.521,4.284l-39.042,4.776l1.853,15.202l-4.182,0.517l-2.374-19.474L-113.146,52.676z"/>
<path fill="#162577" d="M-109.637,80.038l0.89,4.215l-25.661,5.411c-2.759,0.591-4.727,1.132-5.908,1.624
	c-1.185,0.508-2.177,1.147-2.956,1.869c-1.209,1.181-2.033,2.509-2.497,4.034c-0.459,1.517-0.513,3.1-0.147,4.764
	c0.34,1.673,1.049,3.133,2.086,4.354c1.042,1.222,2.337,2.115,3.883,2.664c1.041,0.361,2.197,0.533,3.477,0.517
	c1.275-0.016,3.296-0.327,6.051-0.901l25.652-5.412l0.873,4.116l-27.112,5.724c-5.526,1.164-9.893,0.935-13.074-0.688
	c-3.181-1.624-5.231-4.69-6.187-9.184c-1.008-4.756-0.422-8.553,1.763-11.373c2.189-2.82,6.096-4.821,11.737-6.019L-109.637,80.038z
	"/>
<path fill="#162577" d="M-119.69,134.188c1.103,3.28,1.254,5.953,0.496,8.02c-0.754,2.082-2.443,3.559-5.071,4.428
	c-2.636,0.869-4.85,0.737-6.658-0.443c-1.804-1.188-3.263-3.427-4.375-6.739l-1.923-5.765l15.62-5.215L-119.69,134.188z
	 M-102.34,126.578c1.021,3.059,1.226,5.56,0.586,7.462c-0.631,1.919-2.091,3.264-4.375,4.018c-2.563,0.861-4.645,0.673-6.281-0.549
	s-3.116-3.821-4.44-7.831l-0.841-2.509l13.989-4.657L-102.34,126.578z M-142.415,131.088l3.063,9.184
	c1.579,4.739,3.837,7.971,6.777,9.659c2.948,1.689,6.49,1.854,10.647,0.459c2.324-0.771,4.153-1.992,5.489-3.697
	c1.329-1.706,1.997-3.633,1.989-5.781c1.287,1.066,2.714,1.722,4.292,1.977c1.579,0.246,3.251,0.09,5.022-0.492
	c3.423-1.173,5.769-3.189,7.035-6.093c1.259-2.902,1.242-6.297-0.041-10.15l-2.956-8.839L-142.415,131.088z"/>
<path fill="#162577" d="M-80.336,177.12c2.628,4.543,3.37,8.922,2.193,13.12c-1.201,4.197-4.087,7.642-8.716,10.331
	c-4.703,2.738-9.192,3.641-13.468,2.738c-4.289-0.901-7.667-3.477-10.135-7.707l-5.055-8.725l30.54-17.744L-80.336,177.12z
	 M-121.19,185.32l5.699,9.807c1.976,3.395,3.731,5.838,5.26,7.347c1.525,1.5,3.333,2.689,5.44,3.632
	c3.247,1.395,6.556,1.977,9.983,1.723c3.399-0.263,6.765-1.361,10.073-3.288c5.535-3.23,9.028-7.568,10.496-13.087
	c1.472-5.493,0.553-11.053-2.71-16.694l-6.593-11.331L-121.19,185.32z"/>
<path fill="#162577" d="M-61.399,199.341l14.157,17.695l-3.219,2.574l-11.458-14.316l-12.111,9.676l11.422,14.283l-3.218,2.575
	l-11.41-14.284l-12.267,9.823l11.426,14.268l-3.214,2.583l-14.124-17.654L-61.399,199.341z"/>
<path fill="#162577" d="M183.902,23.969l0.131-4.296l39.325,1.14l0.442-15.304l4.215,0.127l-0.565,19.622L183.902,23.969z"/>
<path fill="#162577" d="M191.216,46.424c3.952-3.1,8.38-4.366,13.3-3.805c5.248,0.578,9.479,2.78,12.71,6.576
	c3.214,3.792,4.542,8.146,3.984,13.066c-0.558,5.001-2.804,9.02-6.724,12.069c-3.919,3.05-8.462,4.297-13.595,3.706
	c-5.084-0.558-9.216-2.755-12.431-6.593c-3.214-3.82-4.542-8.166-4.001-13.013C185.001,53.517,187.256,49.511,191.216,46.424z
	 M181.032,66.427c0.771,2.706,2.059,5.198,3.887,7.486c1.943,2.468,4.198,4.419,6.789,5.887c2.575,1.451,5.379,2.354,8.413,2.682
	c6.444,0.722,12.086-0.771,16.924-4.51c4.854-3.73,7.625-8.708,8.314-14.932c0.377-3.255,0.099-6.33-0.82-9.253
	c-0.927-2.923-2.46-5.608-4.624-8.085c-1.895-2.144-4.067-3.829-6.527-5.071c-2.443-1.234-5.215-2.034-8.281-2.378
	c-3.1-0.353-6.067-0.106-8.905,0.713c-2.82,0.833-5.403,2.21-7.756,4.133c-2.346,1.906-4.183,4.087-5.527,6.555
	c-1.36,2.477-2.197,5.231-2.541,8.262C180.032,60.917,180.254,63.762,181.032,66.427z"/>
<path fill="#162577" d="M195.652,109.294c0.795-3.346,2.066-5.707,3.805-7.085c1.722-1.36,3.936-1.722,6.625-1.082
	c2.697,0.623,4.51,1.919,5.42,3.87c0.935,1.952,0.984,4.625,0.181,8.02l-1.395,5.92l-16.021-3.771L195.652,109.294z M176.899,106.67
	c0.738-3.132,1.887-5.371,3.428-6.658c1.542-1.312,3.493-1.673,5.813-1.115c2.632,0.599,4.313,1.87,5.06,3.747
	c0.754,1.911,0.631,4.903-0.328,9.004l-0.591,2.558l-14.365-3.37L176.899,106.67z M213.355,123.889l2.222-9.429
	c1.156-4.871,0.91-8.79-0.688-11.775c-1.6-3.001-4.543-4.984-8.807-5.985c-2.395-0.574-4.592-0.476-6.625,0.263
	c-2.034,0.754-3.616,2.05-4.731,3.887c-0.533-1.591-1.394-2.903-2.615-3.937c-1.222-1.049-2.723-1.787-4.526-2.214
	c-3.526-0.844-6.576-0.344-9.184,1.477c-2.615,1.804-4.37,4.689-5.305,8.658l-2.148,9.061L213.355,123.889z"/>
<path fill="#162577" d="M161.107,143.765l7.207-20.712l4.06,1.427l-2.903,8.306l37.063,12.923l-1.41,4.067l-37.079-12.923
	l-2.886,8.306L161.107,143.765z"/>
<path fill="#162577" d="M145.102,177.646l1.928-3.854l23.45,11.726c2.534,1.263,4.387,2.066,5.649,2.411
	c1.246,0.344,2.402,0.459,3.469,0.377c1.673-0.181,3.148-0.722,4.46-1.623c1.288-0.895,2.305-2.116,3.083-3.625
	c0.771-1.541,1.132-3.115,1.066-4.723c-0.058-1.607-0.517-3.1-1.378-4.493c-0.59-0.935-1.377-1.788-2.394-2.566
	c-1.017-0.787-2.788-1.804-5.313-3.059l-23.451-11.726l1.887-3.755l24.795,12.381c5.06,2.55,8.314,5.42,9.79,8.675
	c1.484,3.256,1.205,6.921-0.86,11.037c-2.182,4.362-5.002,6.953-8.462,7.806c-3.461,0.861-7.773-0.017-12.923-2.591L145.102,177.646
	z"/>
<path fill="#162577" d="M126.866,204.966l12.3-17.694l3.542,2.46l-9.889,14.234l12.504,8.675l9.881-14.234l3.542,2.46l-9.889,14.234
	l16.202,11.25l-2.395,3.46L126.866,204.966z"/>
<polygon fill="#162577" points="33.502,-369.404 43.937,-342.009 74.856,-341.255 50.217,-323.654 59.146,-295.878 33.502,-312.351 
	7.993,-295.878 16.788,-323.654 -7.84,-341.255 23.199,-342.009 "/>
<polygon fill="#162577" points="141.576,-330.882 152.022,-303.487 182.918,-302.721 158.304,-285.133 167.216,-257.365 
	141.576,-273.83 116.06,-257.365 124.865,-285.133 100.234,-302.721 131.286,-303.487 "/>
<polygon fill="#162577" points="242.849,-301.22 253.262,-273.822 284.19,-273.067 259.535,-255.475 268.488,-227.699 
	242.849,-244.164 217.332,-227.699 226.122,-255.475 201.49,-273.067 232.525,-273.822 "/>
<polygon fill="#162577" points="-174.459,-301.22 -164.045,-273.822 -133.121,-273.067 -157.756,-255.475 -148.823,-227.699 
	-174.459,-244.164 -199.976,-227.699 -191.182,-255.475 -215.809,-273.067 -184.77,-273.822 "/>
<polygon fill="#162577" points="-77.302,-330.37 -66.885,-302.975 -35.952,-302.208 -60.596,-284.621 -51.663,-256.853 
	-77.302,-273.309 -102.811,-256.853 -94.021,-284.621 -118.657,-302.208 -87.597,-302.975 "/>
<path fill="#162577" d="M-179.001-27.86c3.907,172.707,43.638,290.255,213.352,372.349
	C204.688,263.708,244.087,145.864,247.203-27.86H-179.001z M34.334,340.324c-165.91-80.257-204.743-195.182-208.563-364.011h416.667
	C239.372,146.159,200.867,261.346,34.334,340.324z"/>
<rect x="-179.715" y="-58.883" fill="#12692C" width="154.106" height="23.18"/>
<rect x="92.354" y="-58.883" fill="#D8141D" width="154.11" height="23.18"/>
<polygon fill="#AB830D" points="-65.036,362.528 -54.618,389.932 -23.686,390.686 -48.329,408.282 -39.396,436.063 -65.036,419.598 
	-90.544,436.063 -81.755,408.282 -106.378,390.686 -75.338,389.932 "/>
<polygon fill="#AB830D" points="-164.624,286.634 -154.206,314.036 -123.281,314.791 -147.917,332.387 -138.992,360.15 
	-164.624,343.686 -190.132,360.15 -181.342,332.387 -205.978,314.791 -174.935,314.036 "/>
<polygon fill="#AB830D" points="136.033,362.528 125.611,389.932 94.691,390.686 119.322,408.282 110.401,436.063 136.033,419.598 
	161.534,436.063 152.761,408.282 177.375,390.686 146.34,389.932 "/>
<polygon fill="#AB830D" points="235.625,286.634 225.195,314.036 194.283,314.791 218.914,332.387 209.985,360.15 235.625,343.686 
	261.142,360.15 252.344,332.387 276.967,314.791 245.932,314.036 "/>
<polygon fill="#AB830D" points="33.293,403.608 22.872,431.011 -8.049,431.766 16.586,449.361 7.649,477.125 33.293,460.661 
	58.802,477.125 50.012,449.361 74.644,431.766 43.608,431.011 "/>
</svg>
